<?xml version="1.0" encoding="UTF-8"?>
<svg version="1.1" xmlns="http://www.w3.org/2000/svg" width="1080" height="1080">
<path d="M0 0 C356.4 0 712.8 0 1080 0 C1080 356.4 1080 712.8 1080 1080 C723.6 1080 367.2 1080 0 1080 C0 723.6 0 367.2 0 0 Z " fill="#0025A0" transform="translate(0,0)"/>
<path d="M0 0 C2.55165578 3.82748367 2.27479403 6.91467157 2.24609566 11.34961987 C2.24840335 12.21584035 2.25071103 13.08206084 2.25308865 13.97453043 C2.2584202 16.90319583 2.24937847 19.83164527 2.24050903 22.76029968 C2.24138045 24.87066236 2.24313026 26.98102483 2.24568737 29.09138614 C2.25017736 34.91083976 2.2421346 40.73022031 2.23213124 46.54966462 C2.22352274 52.81756413 2.22641505 59.08545927 2.22793579 65.35336304 C2.22898629 76.21968989 2.22276201 87.08598723 2.21146011 97.95230675 C2.1996344 109.35141806 2.19192991 120.75051982 2.18975449 132.14963722 C2.18961701 132.85785421 2.18947953 133.56607119 2.18933788 134.2957493 C2.18866124 137.89228537 2.18805846 141.48882144 2.18748413 145.08535752 C2.18328101 170.57326894 2.16979987 196.06116788 2.15087891 221.54907227 C2.13251628 246.31339451 2.118346 271.07771333 2.10986328 295.84204102 C2.1094687 296.986643 2.1094687 296.986643 2.10906615 298.15436827 C2.10642916 305.81726674 2.10387752 313.48016524 2.10138843 321.14306377 C2.09631573 336.75388942 2.09067322 352.36471484 2.08468628 367.97554016 C2.08427441 369.05222962 2.08427441 369.05222962 2.08385422 370.15067037 C2.06544649 418.10045222 2.03371381 466.05022673 2 514 C0.40233507 514.48727797 -1.19596918 514.97246012 -2.79454041 515.45675659 C-4.12952025 515.86237226 -4.12952025 515.86237226 -5.49146938 516.27618217 C-8.35313556 517.10189464 -11.18633728 517.67622005 -14.12890625 518.1328125 C-15.18400391 518.29910156 -16.23910156 518.46539063 -17.32617188 518.63671875 C-18.9281543 518.87841797 -18.9281543 518.87841797 -20.5625 519.125 C-21.63435547 519.29386719 -22.70621094 519.46273437 -23.81054688 519.63671875 C-40.0760636 522.16359413 -40.0760636 522.16359413 -48.0625 522.0625 C-49.00222656 522.05347656 -49.94195313 522.04445313 -50.91015625 522.03515625 C-51.94462891 522.01775391 -51.94462891 522.01775391 -53 522 C-53 522.66 -53 523.32 -53 524 C-76.65957368 527.0995966 -76.65957368 527.0995966 -87.67578125 527.75 C-92.39429681 528.10485898 -97.07262912 528.71255789 -101.76171875 529.34008789 C-104.53799503 529.70916192 -107.19479358 530 -110 530 C-110.04575905 478.2697625 -110.08100986 426.53952705 -110.10213066 374.8092733 C-110.10463213 368.70463594 -110.10722077 362.59999863 -110.10986328 356.49536133 C-110.1103879 355.28001729 -110.11091252 354.06467325 -110.11145304 352.8125006 C-110.12016009 333.12341705 -110.13593172 313.43434515 -110.15430559 293.74526852 C-110.17299629 273.54852381 -110.18411497 253.35178522 -110.18817699 233.15503222 C-110.19092377 220.68853073 -110.19960513 208.22206219 -110.21583293 195.75557084 C-110.22638957 187.21151175 -110.22960362 178.66746975 -110.22700275 170.12340461 C-110.22571941 165.19099079 -110.22771263 160.25863462 -110.23841095 155.326231 C-110.24813216 150.81141893 -110.24864222 146.29670337 -110.24179779 141.78188688 C-110.24095166 140.14785466 -110.24349827 138.51381644 -110.24976636 136.87979602 C-110.25779074 134.65894761 -110.25346718 132.43844772 -110.24609566 130.21760464 C-110.2468551 128.98389328 -110.24761454 127.75018193 -110.24839699 126.47908539 C-109.2068918 111.89160807 -100.43416468 102.74808483 -90.77050781 92.83105469 C-88.21143004 90.18446295 -85.7272805 87.47294639 -83.25 84.75 C-82.3734375 83.7909375 -81.496875 82.831875 -80.59375 81.84375 C-79.7378125 80.9053125 -78.881875 79.966875 -78 79 C-77.1234375 78.0409375 -76.246875 77.081875 -75.34375 76.09375 C-71.6234016 72.0148138 -67.92064631 67.92869951 -64.3125 63.75 C-62.12730613 61.23216538 -59.87568539 58.83881222 -57.5 56.5 C-55.20673964 54.24202057 -53.03571972 51.94003496 -50.9375 49.5 C-46.84365518 44.74705545 -42.54007964 40.19458912 -38.23803711 35.63085938 C-35.28014129 32.48308318 -32.37422273 29.30543896 -29.54296875 26.04296875 C-25.28309606 21.14072486 -20.8121198 16.44589529 -16.34179688 11.73632812 C-13.67427075 8.91108894 -11.09158804 6.11490694 -8.66796875 3.07421875 C-6.06757689 -0.15952382 -4.04278099 -0.4042781 0 0 Z " fill="#EDEEEE" transform="translate(779,140)"/>
<path d="M0 0 C2.3515625 0.90234375 2.3515625 0.90234375 4.3515625 2.90234375 C5.5013722 6.17768553 5.47586514 9.31869025 5.47461033 12.76691055 C5.47660138 13.97316283 5.47859243 15.1794151 5.48064381 16.42222047 C5.47779079 17.76245788 5.47484519 19.1026951 5.47181702 20.44293213 C5.47225299 21.86531587 5.47312837 23.28769953 5.47440618 24.71008277 C5.47664607 28.623197 5.47263675 32.53628395 5.46762812 36.4493947 C5.46331657 40.66749605 5.46477055 44.8855958 5.4655304 49.10369873 C5.46605518 56.41335669 5.46291309 63.72300573 5.45729256 71.03266144 C5.44917145 81.60124487 5.44656171 92.16982399 5.44530457 102.7384102 C5.44311501 119.88452852 5.43645753 137.03064208 5.42700195 154.17675781 C5.41782535 170.83430965 5.41074573 187.4918602 5.40649414 204.14941406 C5.40623142 205.17588965 5.40596869 206.20236523 5.40569801 207.25994614 C5.40439299 212.4093841 5.40312928 217.55882208 5.40188611 222.70826006 C5.39151649 265.43962458 5.37390079 308.17098392 5.3515625 350.90234375 C1.54946836 351.06859057 -2.25275504 351.23168453 -6.05500793 351.39425659 C-7.12013878 351.44086772 -8.18526963 351.48747885 -9.28267717 351.53550243 C-18.57908987 351.93043306 -27.8567275 352.04926466 -37.16015625 352.03515625 C-38.79865025 352.03583413 -40.43714415 352.03680812 -42.07563782 352.03805542 C-45.45562732 352.03950513 -48.83558987 352.03746493 -52.21557617 352.03271484 C-56.50930981 352.02696811 -60.80298158 352.03034495 -65.09671307 352.03628731 C-68.45905513 352.03992462 -71.82138283 352.03874071 -75.18372536 352.03615952 C-76.76669129 352.03550161 -78.3496586 352.03627793 -79.93262291 352.03863907 C-82.14741803 352.04122449 -84.36211627 352.03724625 -86.5769043 352.03173828 C-87.82577927 352.03094269 -89.07465424 352.03014709 -90.3613739 352.02932739 C-96.13778787 351.93449417 -101.89402376 351.38383132 -107.6484375 350.90234375 C-107.71860557 322.19894675 -107.77146389 293.49556267 -107.80387402 264.79209709 C-107.81932446 251.46374039 -107.8403791 238.13545257 -107.87475586 224.80712891 C-107.90471402 213.18638514 -107.92402575 201.56568004 -107.93070298 189.94489872 C-107.93460436 183.7952369 -107.94373515 177.64568569 -107.96562767 171.49605942 C-107.9860942 165.69965594 -107.99225081 159.90340792 -107.98776054 154.10697174 C-107.98858121 151.98749317 -107.99448589 149.86800902 -108.00605392 147.74856186 C-108.18441433 113.36353755 -108.18441433 113.36353755 -95.72314453 100.70043945 C-94.28510512 99.2887972 -92.83048567 97.89712931 -91.3671875 96.51171875 C-89.02808033 94.26671359 -86.88117379 91.98636942 -84.7734375 89.52734375 C-82.17782131 86.50223712 -79.59271954 83.59425876 -76.6484375 80.90234375 C-75.9884375 80.90234375 -75.3284375 80.90234375 -74.6484375 80.90234375 C-74.54966309 80.31839844 -74.45088867 79.73445313 -74.34912109 79.1328125 C-73.50985994 76.46121324 -72.37916037 75.22117355 -70.4375 73.21484375 C-69.44411621 72.17602051 -69.44411621 72.17602051 -68.43066406 71.11621094 C-67.7187793 70.38563477 -67.00689453 69.65505859 -66.2734375 68.90234375 C-64.80147513 67.36646808 -63.33012285 65.83000748 -61.859375 64.29296875 C-61.13717773 63.54208984 -60.41498047 62.79121094 -59.67089844 62.01757812 C-57.03893298 59.26488031 -54.46444056 56.46666969 -51.8984375 53.65234375 C-49.12604609 50.61273389 -46.35090122 47.57628975 -43.5546875 44.55859375 C-43.02842773 43.99043945 -42.50216797 43.42228516 -41.95996094 42.83691406 C-40.96407327 41.7625512 -39.96740912 40.68890722 -38.96972656 39.61621094 C-36.34649433 36.7842917 -33.77759536 33.91436419 -31.24609375 31 C-27.07793143 26.21635842 -22.72885486 21.61339698 -18.36376953 17.01000977 C-15.38315899 13.85603943 -12.43561888 10.69724915 -9.62890625 7.38671875 C-9.18264893 6.86698486 -8.7363916 6.34725098 -8.27661133 5.81176758 C-7.10411621 4.43460548 -5.94978204 3.04203917 -4.796875 1.6484375 C-2.6484375 -0.09765625 -2.6484375 -0.09765625 0 0 Z " fill="#EEEEEE" transform="translate(591.6484375,324.09765625)"/>
<path d="M0 0 C7.95677973 -0.30215619 15.76579788 0.22757837 23.6875 0.9375 C24.68023926 1.02435059 25.67297852 1.11120117 26.69580078 1.20068359 C27.62505371 1.28785645 28.55430664 1.3750293 29.51171875 1.46484375 C30.35178467 1.543396 31.19185059 1.62194824 32.05737305 1.70288086 C34 2 34 2 35 3 C38.19280616 3.54355355 41.39639601 3.96590986 44.60546875 4.40234375 C47.90696044 4.98361904 50.8472133 5.87738427 54 7 C55.53953571 7.46544103 57.08115765 7.92404949 58.625 8.375 C62.5333025 9.54571694 66.42922735 10.74856404 70.3125 12 C71.27800781 12.309375 72.24351562 12.61875 73.23828125 12.9375 C76 14 76 14 78.5078125 15.515625 C81.16800055 17.10006302 83.59342704 17.89361433 86.5625 18.75 C95.8177085 21.72855662 103.7278095 26.614662 111 33 C112.15242187 33.67095703 112.15242187 33.67095703 113.328125 34.35546875 C116.28617588 36.17614041 118.73103558 38.24109422 121.3125 40.5625 C122.19550781 41.34753906 123.07851563 42.13257813 123.98828125 42.94140625 C126 45 126 45 126 47 C126.66 47 127.32 47 128 47 C136.09371362 57.60959087 138.63059788 65.80595208 138 79 C137.98066406 79.86625 137.96132813 80.7325 137.94140625 81.625 C137.62161963 87.36177822 136.05524739 89.94475261 132 94 C131.443125 94.61875 130.88625 95.2375 130.3125 95.875 C129 97 129 97 127 97 C126.7525 97.5775 126.505 98.155 126.25 98.75 C124.81700012 101.32939979 123.21575324 103.06121592 121 105 C120.34 105 119.68 105 119 105 C119 105.66 119 106.32 119 107 C116.4385343 109.29648649 115.52032428 110 112 110 C111.67 110.99 111.34 111.98 111 113 C108.8203125 114.31640625 108.8203125 114.31640625 106.125 115.5625 C103.22475592 116.9196113 100.67400254 118.21733164 98 120 C96.68 120 95.36 120 94 120 C94 120.66 94 121.32 94 122 C90.81592472 124.19231996 87.59988456 125.64960962 83.96484375 126.92578125 C83.00433105 127.26432129 82.04381836 127.60286133 81.05419922 127.95166016 C75.89821414 129.72142833 70.73596381 131.46945875 65.5625 133.1875 C63.97018555 133.72020508 63.97018555 133.72020508 62.34570312 134.26367188 C60.81526367 134.77317383 60.81526367 134.77317383 59.25390625 135.29296875 C58.33939697 135.5974292 57.4248877 135.90188965 56.48266602 136.21557617 C51.79555093 137.69651833 47.96127122 138.09540906 43 138 C43 138.66 43 139.32 43 140 C40.69 140 38.38 140 36 140 C36 140.66 36 141.32 36 142 C30.32462771 143.81566236 24.91824775 145.2033128 19 146 C17.63875 146.47759766 17.63875 146.47759766 16.25 146.96484375 C12.72633266 148.08716568 9.42068374 148.56996174 5.75 149 C-1.69304376 149.91932216 -8.94741897 151.16299331 -16.1875 153.125 C-19.9694394 153.99298609 -23.13835765 154 -27 154 C-29.20316277 154.39447105 -31.36229052 154.90182709 -33.5390625 155.421875 C-40.35962567 157.02416603 -46.97970453 158.31201313 -54 158 C-54 158.66 -54 159.32 -54 160 C-54.61407715 160.0501123 -55.2281543 160.10022461 -55.86083984 160.15185547 C-58.69942277 160.38693811 -61.53717666 160.63092534 -64.375 160.875 C-65.34050781 160.95363281 -66.30601562 161.03226563 -67.30078125 161.11328125 C-71.94061094 161.51809861 -76.45830499 162.03095963 -81.015625 163.00390625 C-86.43812123 164.16116605 -91.85378839 164.63056848 -97.375 165.0625 C-99.29971521 165.21714179 -101.22420809 165.37458262 -103.1484375 165.53515625 C-103.98552246 165.600979 -104.82260742 165.66680176 -105.68505859 165.73461914 C-107.95365364 165.94069342 -107.95365364 165.94069342 -109.92773438 166.49780273 C-112.61953726 167.15013998 -115.24495562 167.31105787 -118.0078125 167.5 C-119.15894531 167.5825 -120.31007813 167.665 -121.49609375 167.75 C-123.92314024 167.91720234 -126.35022393 168.08386559 -128.77734375 168.25 C-129.92589844 168.3325 -131.07445312 168.415 -132.2578125 168.5 C-133.3111377 168.5721875 -134.36446289 168.644375 -135.44970703 168.71875 C-137.98795212 168.84961176 -137.98795212 168.84961176 -140 170 C-142.36343089 170.37653153 -144.7113842 170.70481001 -147.0859375 170.9921875 C-147.79889984 171.07935028 -148.51186218 171.16651306 -149.24642944 171.25631714 C-157.02282682 172.17113106 -164.80881623 172.6958089 -172.625 173.125 C-173.36537506 173.16735779 -174.10575012 173.20971558 -174.86856079 173.25335693 C-190.25245806 174.1216354 -205.59505449 174.22239233 -221 174 C-221 174.66 -221 175.32 -221 176 C-230.9047958 176.02364028 -240.80958442 176.0411685 -250.71440315 176.05181217 C-255.31840161 176.05693209 -259.92238018 176.06381878 -264.52636719 176.07543945 C-296.96543753 176.15491814 -329.44507288 176.08744807 -361.8125 173.6875 C-363.13767639 173.59287476 -363.13767639 173.59287476 -364.48962402 173.49633789 C-377.6860086 172.5531144 -390.87210543 171.47392328 -404.04550171 170.25064087 C-405.82745707 170.08549717 -407.60970287 169.92345377 -409.39224243 169.76473999 C-411.86173889 169.54244739 -414.32927873 169.30487871 -416.796875 169.0625 C-417.51262192 169.00000565 -418.22836884 168.93751129 -418.96580505 168.87312317 C-423.37216263 168.41770939 -427.08184142 167.33645525 -431.18771362 165.68630981 C-433.48607924 164.81592261 -435.70110563 164.41825185 -438.13671875 164.12109375 C-439.03825684 164.00548096 -439.93979492 163.88986816 -440.86865234 163.77075195 C-441.79887207 163.66077881 -442.7290918 163.55080566 -443.6875 163.4375 C-445.63161792 163.19095035 -447.57562901 162.94355693 -449.51953125 162.6953125 C-450.45490723 162.57833008 -451.3902832 162.46134766 -452.35400391 162.34082031 C-457.58543526 161.66698029 -462.79216915 160.83521816 -468 160 C-468 159.34 -468 158.68 -468 158 C-469.42892578 157.92652344 -469.42892578 157.92652344 -470.88671875 157.8515625 C-472.14097656 157.77679687 -473.39523437 157.70203125 -474.6875 157.625 C-475.92886719 157.55539062 -477.17023438 157.48578125 -478.44921875 157.4140625 C-481.69317772 157.03577906 -484.06567185 156.38020024 -487 155 C-487 154.34 -487 153.68 -487 153 C-488.61068359 152.92652344 -488.61068359 152.92652344 -490.25390625 152.8515625 C-491.69012642 152.77646602 -493.12632319 152.70092124 -494.5625 152.625 C-495.26697266 152.5940625 -495.97144531 152.563125 -496.69726562 152.53125 C-508.09927591 151.90072409 -508.09927591 151.90072409 -511 149 C-512.46993665 148.64662129 -513.95191943 148.34292941 -515.4375 148.0625 C-516.79681641 147.79759766 -516.79681641 147.79759766 -518.18359375 147.52734375 C-519.96501944 147.1937897 -521.7487125 146.87194594 -523.53515625 146.56640625 C-528.7652383 145.62979885 -533.29745429 144.1402075 -538.1796875 142.06640625 C-542.12242983 140.57559094 -546.16669237 139.60476674 -550.24951172 138.57299805 C-555.6820912 137.16386714 -560.80249866 135.2444528 -566.00390625 133.15625 C-568.73309659 132.10300314 -571.43745573 131.23489314 -574.25 130.4375 C-578.29096301 129.28013681 -582.00640368 127.75015159 -585.81640625 125.984375 C-589.15006343 124.48154564 -592.56429809 123.24934615 -596 122 C-596 121.34 -596 120.68 -596 120 C-597.216875 119.79375 -598.43375 119.5875 -599.6875 119.375 C-606.21188887 117.95756088 -612.04013248 114.92927028 -618 112 C-618 111.34 -618 110.68 -618 110 C-618.66 109.9175 -619.32 109.835 -620 109.75 C-623.29672812 108.92581797 -625.93059502 107.6169524 -628.9296875 106.0546875 C-631.89220919 104.54547834 -634.93172989 103.27844588 -638 102 C-638 101.34 -638 100.68 -638 100 C-638.66 100 -639.32 100 -640 100 C-640 99.34 -640 98.68 -640 98 C-641.299375 97.62875 -641.299375 97.62875 -642.625 97.25 C-646.21060064 95.92199976 -648.96327987 94.31369152 -652 92 C-652 91.34 -652 90.68 -652 90 C-652.763125 89.731875 -653.52625 89.46375 -654.3125 89.1875 C-656.88988618 88.04865495 -658.26954864 87.18583329 -660 85 C-660 84.34 -660 83.68 -660 83 C-654.77159798 83.53351041 -650.79983814 84.93110425 -646 87 C-643.70048094 87.57884445 -641.39374489 88.05868748 -639.0703125 88.53125 C-636.58824841 89.09322677 -634.34540293 90.02274878 -632 91 C-630.34080104 91.36871088 -628.6752357 91.71281674 -627 92 C-627 92.66 -627 93.32 -627 94 C-626.11248047 94.07347656 -626.11248047 94.07347656 -625.20703125 94.1484375 C-620.80895528 94.56456867 -617.03071103 95.04965595 -613 97 C-613 97.66 -613 98.32 -613 99 C-612.06929687 98.95101562 -611.13859375 98.90203125 -610.1796875 98.8515625 C-605.00365318 98.85416483 -600.13053798 100.1660641 -595.125 101.375 C-593.23180498 101.82045765 -591.33857618 102.26577177 -589.4453125 102.7109375 C-588.52322998 102.92991699 -587.60114746 103.14889648 -586.65112305 103.37451172 C-579.27693724 105.11432791 -571.86931038 106.65281452 -564.4375 108.125 C-563.52419922 108.30675781 -562.61089844 108.48851562 -561.66992188 108.67578125 C-559.44679025 109.11807969 -557.22348289 109.55947145 -555 110 C-555 110.66 -555 111.32 -555 112 C-554.39776611 112.05696045 -553.79553223 112.1139209 -553.17504883 112.17260742 C-539.87614112 113.46208183 -526.72692872 114.81624317 -514.015625 119.0859375 C-504.85199184 121.86351543 -495.21723605 122.17183877 -485.71264648 122.60400391 C-478.72621465 122.94553939 -471.90333853 123.85684265 -465 125 C-465 125.66 -465 126.32 -465 127 C-464.2678125 126.95359375 -463.535625 126.9071875 -462.78125 126.859375 C-455.15466319 126.60515544 -448.22436427 127.36220079 -440.75 128.75 C-428.73071679 130.96238479 -416.66179113 132.13232522 -404.5 133.25 C-403.53670776 133.33858276 -402.57341553 133.42716553 -401.58093262 133.51843262 C-396.05488497 134.02379916 -390.52779265 134.51347143 -385 135 C-384.67 127.41 -384.34 119.82 -384 112 C-383.67 112 -383.34 112 -383 112 C-381.71922635 119.52454517 -381.63903766 126.47150196 -383 134 C-382.05640625 133.97679687 -381.1128125 133.95359375 -380.140625 133.9296875 C-373.97299508 133.84299391 -368.14086156 133.80947953 -362.0625 135 C-356.60751904 136.05271562 -351.31992838 136.11419412 -345.79248047 136.03125 C-341.25354934 135.97013431 -336.89399538 136.23311555 -332.39453125 136.77734375 C-327.93913554 137.19163014 -323.46987342 137.07648072 -319 137 C-319 137.66 -319 138.32 -319 139 C-254.96048255 139.31574423 -254.96048255 139.31574423 -190.9375 138.0625 C-189.53256304 138.01846867 -188.1276253 137.97446212 -186.72268677 137.93048096 C-182.8655577 137.80813347 -179.00892518 137.67377691 -175.15234375 137.53515625 C-174.02134247 137.49655991 -172.89034119 137.45796356 -171.72506714 137.41819763 C-170.71098785 137.37824173 -169.69690857 137.33828583 -168.65209961 137.29711914 C-167.77106064 137.26380997 -166.89002167 137.23050079 -165.98228455 137.19618225 C-164.0001994 137.21154225 -164.0001994 137.21154225 -163 136 C-159.85847283 135.44495068 -156.67378767 135.1859986 -153.5 134.875 C-152.092948 134.73698975 -152.092948 134.73698975 -150.6574707 134.59619141 C-142.00740858 133.84006965 -133.62676998 134.16332768 -125 135 C-125 134.34 -125 133.68 -125 133 C-117.40877759 131.47430858 -109.90486972 130.52253462 -102.1875 129.9375 C-96.40196214 129.48497894 -90.72345392 128.97822151 -85 128 C-83.37605252 127.9379225 -81.74994703 127.91287959 -80.125 127.9375 C-79.34382812 127.94652344 -78.56265625 127.95554687 -77.7578125 127.96484375 C-77.17773438 127.97644531 -76.59765625 127.98804688 -76 128 C-76 127.34 -76 126.68 -76 126 C-75.27635254 125.92483154 -74.55270508 125.84966309 -73.80712891 125.7722168 C-55.24007325 123.87944932 -55.24007325 123.87944932 -36.82275391 120.91479492 C-32.3980599 120.09117211 -28.35345902 119.96568246 -23.88720703 120.24682617 C-23.26442871 120.16537354 -22.64165039 120.0839209 -22 120 C-21.34 119.01 -20.68 118.02 -20 117 C-17.12890625 116.12109375 -17.12890625 116.12109375 -13.5625 115.4375 C-12.28890625 115.18484375 -11.0153125 114.9321875 -9.703125 114.671875 C-7.57160804 114.28514408 -5.43728029 113.91217669 -3.296875 113.578125 C3.83104858 112.4573823 10.52341842 110.36697001 17.36401367 108.11987305 C21.22404853 106.85380063 24.97876355 105.65935254 29 105 C29 104.34 29 103.68 29 103 C30.134375 102.608125 31.26875 102.21625 32.4375 101.8125 C36.44258234 100.3150089 40.05055073 98.39004024 43.7578125 96.2734375 C53.04294479 91 53.04294479 91 57 91 C57 90.34 57 89.68 57 89 C59.01171875 87.703125 59.01171875 87.703125 61.6875 86.25 C64.87001818 84.4154769 67.41887115 82.8917279 69.625 79.9375 C72.20098746 76.75141024 74.58980739 75.21726521 78.1328125 73.2734375 C83.10210671 69.88433726 84.31355723 64.91420392 85.6171875 59.30859375 C86.39923437 52.5494744 84.82352304 46.43136406 80.75 41 C78.25515187 39.185565 75.73758176 37.62079545 73.01953125 36.1640625 C70.56757036 34.75074655 68.30392152 33.14316103 66 31.5 C62.10895055 28.73342814 58.19299979 26.27880423 54 24 C54 23.34 54 22.68 54 22 C49.66613112 20.5295802 45.33433276 19.09014094 40.9453125 17.79296875 C40.23439453 17.57987061 39.52347656 17.36677246 38.79101562 17.1472168 C37.36233077 16.72031829 35.93134722 16.30102866 34.49804688 15.88989258 C30.81742516 14.78170539 28.61848046 13.75509683 26 11 C23.50556226 10.21201945 23.50556226 10.21201945 20.8125 9.8125 C19.91144531 9.65394531 19.01039063 9.49539063 18.08203125 9.33203125 C17.39496094 9.22246094 16.70789063 9.11289062 16 9 C16 8.34 16 7.68 16 7 C14.4840625 7.0928125 14.4840625 7.0928125 12.9375 7.1875 C8.44500628 6.97357173 5.98914039 5.95386468 2 4 C2 3.34 2 2.68 2 2 C1.34 2 0.68 2 0 2 C0 1.34 0 0.68 0 0 Z " fill="#040F44" transform="translate(802,536)"/>
<path d="M0 0 C0.09373615 16.20380148 0.16412181 32.40751405 0.20724869 48.61152172 C0.22781183 56.13653351 0.25581166 63.66137614 0.30175781 71.1862793 C0.34181831 77.75041985 0.36747814 84.3144378 0.37635398 90.87869722 C0.38153653 94.34956036 0.39358395 97.82007298 0.42292023 101.29082298 C0.4555208 105.17986646 0.4559472 109.06857734 0.45410156 112.95776367 C0.46848267 114.08921814 0.48286377 115.22067261 0.49768066 116.38641357 C0.43868593 127.95278496 -2.17190981 138.30799896 -10 147 C-10.61359375 147.70769531 -11.2271875 148.41539062 -11.859375 149.14453125 C-17.20972387 155.20893044 -22.79381961 161.06460619 -28.33178711 166.95703125 C-35.10680437 174.16736019 -41.8694185 181.38993932 -48.359375 188.859375 C-51.89683906 192.91311759 -55.55428381 196.8407708 -59.25 200.75 C-63.85710332 205.64504727 -68.45545691 210.54673997 -73 215.5 C-73.804375 216.3765625 -74.60875 217.253125 -75.4375 218.15625 C-77.42642954 220.36347668 -79.38458679 222.58864757 -81.33203125 224.83203125 C-85.64008787 229.77002304 -90.14748837 234.51155118 -94.65820312 239.26367188 C-97.33224163 242.09580848 -99.90509706 244.87782054 -102.296875 247.95703125 C-104 250 -104 250 -106.5625 250.5 C-109.42840886 249.91212126 -110.19956829 249.25692803 -112 247 C-112.37259549 245.13981372 -112.37259549 245.13981372 -112.36914349 243.00762653 C-112.37511663 242.19350561 -112.38108978 241.3793847 -112.38724393 240.54059345 C-112.37413614 239.19965122 -112.37413614 239.19965122 -112.36076355 237.83161926 C-112.36332682 236.88167184 -112.3658901 235.93172442 -112.36853105 234.95299071 C-112.3734896 231.75600645 -112.35694173 228.5594899 -112.34057617 225.36254883 C-112.33973035 223.07642122 -112.34020417 220.79029279 -112.34190369 218.50416565 C-112.34276681 212.28546245 -112.32508974 206.06693175 -112.30418181 199.84826875 C-112.28546777 193.35398873 -112.28366874 186.85970505 -112.28010559 180.36540222 C-112.27183129 169.46109938 -112.25307416 158.55686045 -112.22631836 147.65258789 C-112.19878682 136.42049477 -112.17754882 125.18841887 -112.16479492 113.95629883 C-112.16400675 113.26410402 -112.16321858 112.57190922 -112.16240653 111.85873882 C-112.15849145 108.3862463 -112.15470032 104.91375366 -112.15097082 101.44126093 C-112.11986403 72.62746528 -112.06679593 43.81373416 -112 15 C-107.18319894 13.76030703 -102.79928584 12.75804843 -97.8125 12.5 C-93.46582264 12.21652104 -89.23445471 11.77497707 -84.9375 11.0625 C-78.22333268 9.95857556 -71.4881302 9.30853854 -64.71459961 8.69750977 C-63.47528687 8.58234009 -63.47528687 8.58234009 -62.2109375 8.46484375 C-61.47149902 8.399021 -60.73206055 8.33319824 -59.97021484 8.26538086 C-57.79200234 8.03442132 -57.79200234 8.03442132 -55 7 C-47.68086314 6.09764066 -40.36709477 5.85331006 -33 6 C-33 5.34 -33 4.68 -33 4 C-29.00170835 3.32281186 -25.00113468 2.66016492 -21 2 C-19.87464844 1.80921875 -18.74929688 1.6184375 -17.58984375 1.421875 C-16.48769531 1.24140625 -15.38554688 1.0609375 -14.25 0.875 C-13.24453125 0.70742188 -12.2390625 0.53984375 -11.203125 0.3671875 C-7.43039784 -0.06529586 -3.79730948 -0.02293415 0 0 Z " fill="#EDEEEE" transform="translate(781,690)"/>
<path d="M0 0 C0.07637444 7.38315162 0.12873584 14.76620046 0.16479492 22.1496582 C0.17983529 24.65881152 0.20027272 27.16793874 0.22631836 29.67700195 C0.26291014 33.29384825 0.27977448 36.91034542 0.29296875 40.52734375 C0.30845261 41.64020248 0.32393646 42.75306122 0.33988953 43.89964294 C0.34339276 60.29423976 -7.55388655 69.7842473 -18.390625 81.1796875 C-21.0528853 83.90826689 -21.0528853 83.90826689 -23 87 C-23.66 87 -24.32 87 -25 87 C-25.39372803 87.87700562 -25.39372803 87.87700562 -25.79541016 88.77172852 C-27.06198533 91.11466156 -28.43348494 92.73337638 -30.2734375 94.65234375 C-30.92771729 95.34013916 -31.58199707 96.02793457 -32.25610352 96.73657227 C-32.95533936 97.46287842 -33.6545752 98.18918457 -34.375 98.9375 C-35.82990957 100.46568663 -37.28433207 101.99433711 -38.73828125 103.5234375 C-39.45967285 104.27979492 -40.18106445 105.03615234 -40.92431641 105.81542969 C-43.83007599 108.87362032 -46.70280889 111.96125586 -49.5625 115.0625 C-50.05556641 115.59689697 -50.54863281 116.13129395 -51.05664062 116.68188477 C-53.53670726 119.37925491 -55.98113569 122.10096865 -58.375 124.875 C-62.34215106 129.46292775 -66.5144319 133.85893951 -70.65991211 138.28491211 C-77.01966409 145.07853391 -83.33336469 151.91198578 -89.4375 158.9375 C-90.25347656 159.86369141 -90.25347656 159.86369141 -91.0859375 160.80859375 C-92.15635748 162.0341154 -93.22221181 163.26380179 -94.27050781 164.50830078 C-95.68584227 166.18597298 -97.12278853 167.84322956 -98.5625 169.5 C-99.00972412 170.04132568 -99.45694824 170.58265137 -99.91772461 171.14038086 C-102.38799066 173.94284421 -103.55962113 174.95467446 -107.33984375 175.34375 C-108.65662109 175.17359375 -108.65662109 175.17359375 -110 175 C-111.97373567 170.86919426 -112.24727412 167.53912142 -112.24050903 162.98283386 C-112.24221788 162.28844139 -112.24392673 161.59404892 -112.24568737 160.87861425 C-112.24897406 158.55853728 -112.23799227 156.23875137 -112.22705078 153.91870117 C-112.22648649 152.25296027 -112.22680358 150.58721888 -112.22793579 148.92147827 C-112.2285096 144.40327979 -112.21675065 139.8851875 -112.20278788 135.36701369 C-112.1902853 130.64379524 -112.18911039 125.92057436 -112.18673706 121.19734192 C-112.18052091 112.25495321 -112.16410824 103.31261341 -112.14403808 94.37024623 C-112.12168331 84.18895238 -112.11068671 74.00765618 -112.10064721 63.82634389 C-112.07974215 42.88420197 -112.04456351 21.94210407 -112 1 C-99.61184102 0.86868776 -87.2236733 0.73823499 -74.83549404 0.60884857 C-69.08181253 0.54872879 -63.32813431 0.48832432 -57.57446289 0.42724609 C-52.01125345 0.36820058 -46.44803633 0.30993311 -40.88481331 0.25218201 C-38.7731911 0.23012923 -36.66157168 0.20780649 -34.54995537 0.18519592 C-23.03280262 0.06206041 -11.51789033 -0.03566239 0 0 Z " fill="#ECEDEE" transform="translate(596,711)"/>
<path d="M0 0 C2.3828125 0.625 2.3828125 0.625 4.00919056 2.74921703 C5.64202452 6.16768027 5.75252875 8.48150284 5.74357605 12.26252747 C5.74613932 12.91608442 5.7487026 13.56964136 5.75134355 14.24300307 C5.75627077 16.42503262 5.73980704 18.60636466 5.72338867 20.78833008 C5.72254217 22.35554996 5.723018 23.92277104 5.72471619 25.48999023 C5.72557665 29.73966304 5.70794267 33.98908163 5.68699431 38.23869538 C5.66823602 42.68163402 5.66647774 47.12457853 5.66291809 51.56755066 C5.65359514 59.97873256 5.62897796 68.38979744 5.59886962 76.80092782 C5.56533341 86.37762861 5.54884156 95.95433499 5.53378332 105.53107989 C5.50242863 125.22911857 5.44966324 144.92705191 5.3828125 164.625 C3.79306459 164.63075582 2.20331061 164.63484736 0.61355591 164.63824463 C-0.27173735 164.64070316 -1.1570306 164.6431617 -2.06915092 164.64569473 C-7.98040604 164.59768449 -13.86156412 163.9338426 -19.7421875 163.375 C-20.44083923 163.31008362 -21.13949097 163.24516724 -21.85931396 163.17828369 C-32.21683824 162.20618777 -42.42655002 160.81259395 -52.67041016 158.97460938 C-59.98768066 157.67228589 -67.17982891 156.88687882 -74.6171875 156.625 C-74.6171875 155.965 -74.6171875 155.305 -74.6171875 154.625 C-75.21144531 154.64167725 -75.80570312 154.65835449 -76.41796875 154.67553711 C-82.94666296 154.7777066 -89.16957726 154.17064624 -95.6171875 153.1875 C-97.02677734 152.98543945 -97.02677734 152.98543945 -98.46484375 152.77929688 C-105.33506059 151.76606346 -105.33506059 151.76606346 -107.6171875 150.625 C-107.67610734 147.00007033 -107.7110884 143.37526666 -107.7421875 139.75 C-107.75894531 138.73679687 -107.77570313 137.72359375 -107.79296875 136.6796875 C-107.87332108 124.14472405 -105.67122869 111.99124951 -96.6171875 102.625 C-95.9571875 102.625 -95.2971875 102.625 -94.6171875 102.625 C-94.35832764 102.04395508 -94.09946777 101.46291016 -93.83276367 100.86425781 C-92.52234574 98.45028848 -91.06871868 96.77502879 -89.16796875 94.796875 C-88.48412109 94.07886719 -87.80027344 93.36085938 -87.09570312 92.62109375 C-86.38091797 91.87988281 -85.66613281 91.13867188 -84.9296875 90.375 C-80.30016207 85.54381776 -75.74753485 80.68232403 -71.36547852 75.625 C-68.28773968 72.10414585 -65.11350497 68.67477238 -61.9296875 65.25 C-61.27935547 64.53972656 -60.62902344 63.82945312 -59.95898438 63.09765625 C-59.32669922 62.41832031 -58.69441406 61.73898437 -58.04296875 61.0390625 C-57.48005127 60.4301416 -56.91713379 59.8212207 -56.3371582 59.19384766 C-54.53935313 57.55400445 -52.78106198 56.70039414 -50.6171875 55.625 C-50.26549682 54.29639075 -49.93441968 52.96225564 -49.6171875 51.625 C-47.796875 49.546875 -47.796875 49.546875 -45.4921875 47.375 C-40.65341219 42.69803087 -35.93074146 37.91116744 -32.046875 32.39453125 C-31.57507813 31.81058594 -31.10328125 31.22664062 -30.6171875 30.625 C-29.9571875 30.625 -29.2971875 30.625 -28.6171875 30.625 C-28.35292969 30.03203125 -28.08867187 29.4390625 -27.81640625 28.828125 C-26.57348325 26.54470946 -25.31317104 25.15073277 -23.4296875 23.375 C-20.93959525 20.9566388 -18.57531051 18.50074415 -16.3046875 15.875 C-15.73363281 15.22015625 -15.16257812 14.5653125 -14.57421875 13.890625 C-13.08046058 12.16132413 -11.60133497 10.41937282 -10.12890625 8.671875 C-9.25058559 7.65574354 -8.37168222 6.64011545 -7.4921875 5.625 C-6.68523437 4.67625 -5.87828125 3.7275 -5.046875 2.75 C-2.6171875 0.625 -2.6171875 0.625 0 0 Z " fill="#ECECEE" transform="translate(411.6171875,506.375)"/>
<path d="M0 0 C2.06282387 0.31507091 4.1255488 0.63078956 6.18823242 0.94677734 C7.33692307 1.12252289 8.48561371 1.29826843 9.66911316 1.4793396 C13.89397488 2.13973976 18.10413745 2.86757203 22.3125 3.625 C23.06466797 3.7590625 23.81683594 3.893125 24.59179688 4.03125 C26.39477546 4.35280032 28.19742687 4.67618447 30 5 C30 5.66 30 6.32 30 7 C31.13953125 6.97164062 32.2790625 6.94328125 33.453125 6.9140625 C37.99632767 6.91606039 42.2895893 7.56406015 46.75 8.375 C48.33199578 8.65254598 49.91402715 8.9298892 51.49609375 9.20703125 C52.26163574 9.34318848 53.02717773 9.4793457 53.81591797 9.61962891 C57.70731777 10.29733971 61.61424772 10.88094662 65.51953125 11.47265625 C68 12 68 12 70.07763672 12.96606445 C74.08869476 14.38518148 78.01734447 14.68670247 82.23828125 15.0703125 C83.11904831 15.15626678 83.99981537 15.24222107 84.90727234 15.33078003 C87.70839277 15.6025253 90.51036922 15.86390056 93.3125 16.125 C95.21686272 16.30790947 97.12116058 16.49149564 99.02539062 16.67578125 C103.6828787 17.12503066 108.34116173 17.56498513 113 18 C113.05864392 21.66659815 113.09381108 25.33307364 113.125 29 C113.14175781 30.02996094 113.15851563 31.05992187 113.17578125 32.12109375 C113.24676071 43.26486838 110.94473597 55.98613193 103.6875 64.8125 C102.3571875 65.8953125 102.3571875 65.8953125 101 67 C99.69547937 68.25763511 98.40505855 69.52997505 97.125 70.8125 C96.43792969 71.49957031 95.75085938 72.18664062 95.04296875 72.89453125 C91.19830763 76.85681107 87.63406752 81.06037514 84.078125 85.28125 C83.45421875 86.0134375 82.8303125 86.745625 82.1875 87.5 C81.62417969 88.1703125 81.06085938 88.840625 80.48046875 89.53125 C79 91 79 91 77 91 C76.77828125 91.54011719 76.5565625 92.08023438 76.328125 92.63671875 C74.56522785 95.77363868 72.20978796 98.21972913 69.75 100.8125 C69.22929932 101.36929443 68.70859863 101.92608887 68.17211914 102.49975586 C66.4524404 104.33731478 64.72647126 106.16882297 63 108 C61.09824852 110.02341235 59.19798709 112.04819009 57.29980469 114.07495117 C56.08006575 115.37672027 54.85813909 116.67644377 53.63378906 117.97387695 C51.35833718 120.39799779 49.18587487 122.74549441 47.22265625 125.43359375 C46.81917969 125.95050781 46.41570312 126.46742188 46 127 C45.34 127 44.68 127 44 127 C43.6596875 127.804375 43.6596875 127.804375 43.3125 128.625 C40.43578585 133.83048274 36.16897477 137.83102523 32 142 C30.16628354 144.12806574 28.349534 146.26807562 26.55078125 148.42578125 C26.03902344 148.94527344 25.52726562 149.46476563 25 150 C24.34 150 23.68 150 23 150 C22.60748047 150.88558594 22.60748047 150.88558594 22.20703125 151.7890625 C20.9360512 154.11713599 19.60869648 155.56029999 17.6875 157.375 C15.36889985 159.59779023 13.34716661 161.79571004 11.4375 164.375 C8.60813325 167.42201035 7.08056273 167.81020638 3 168 C0.63943525 163.10236536 -0.37370377 159.57151169 -0.36076355 154.04603577 C-0.36332682 153.38260286 -0.3658901 152.71916996 -0.36853105 152.03563303 C-0.37343778 149.83217619 -0.35702876 147.62941815 -0.34057617 145.42602539 C-0.33972922 143.83880632 -0.34020637 142.25158607 -0.34190369 140.66436768 C-0.34276241 136.36936087 -0.32515658 132.07460677 -0.30418181 127.77965856 C-0.28539454 123.28601576 -0.28366296 118.79236681 -0.28010559 114.2986908 C-0.27079115 105.79549446 -0.2461855 97.2924142 -0.21605712 88.78926891 C-0.18249441 79.10611494 -0.1660224 69.42295534 -0.15097082 59.73975766 C-0.11963541 39.82644039 -0.06688659 19.91322751 0 0 Z " fill="#EBECEE" transform="translate(304,689)"/>
<path d="M0 0 C2.375 0.875 2.375 0.875 4.375 2.875 C5.5248097 6.15034178 5.49930264 9.2913465 5.49804783 12.7395668 C5.50003888 13.94581908 5.50202993 15.15207135 5.50408131 16.39487672 C5.50122829 17.73511413 5.49828269 19.07535135 5.49525452 20.41558838 C5.49569049 21.83797212 5.49656587 23.26035578 5.49784368 24.68273902 C5.50008357 28.59585325 5.49607425 32.5089402 5.49106562 36.42205095 C5.48675407 40.6401523 5.48820805 44.85825205 5.4889679 49.07635498 C5.48949268 56.38601294 5.48635059 63.69566198 5.48073006 71.00531769 C5.47260895 81.57390112 5.46999921 92.14248024 5.46874207 102.71106645 C5.46655251 119.85718477 5.45989503 137.00329833 5.45043945 154.14941406 C5.44126285 170.8069659 5.43418323 187.46451645 5.42993164 204.12207031 C5.42966892 205.1485459 5.42940619 206.17502148 5.42913551 207.23260239 C5.42783049 212.38204035 5.42656678 217.53147833 5.42532361 222.68091631 C5.41495399 265.41228083 5.39733829 308.14364017 5.375 350.875 C1.57290586 351.04124682 -2.22931754 351.20434078 -6.03157043 351.36691284 C-7.09670128 351.41352397 -8.16183213 351.4601351 -9.25923967 351.50815868 C-18.55565237 351.90308931 -27.83329 352.02192091 -37.13671875 352.0078125 C-38.77521275 352.00849038 -40.41370665 352.00946437 -42.05220032 352.01071167 C-45.43218982 352.01216138 -48.81215237 352.01012118 -52.19213867 352.00537109 C-56.48587231 351.99962436 -60.77954408 352.0030012 -65.07327557 352.00894356 C-68.43561763 352.01258087 -71.79794533 352.01139696 -75.16028786 352.00881577 C-76.74325379 352.00815786 -78.3262211 352.00893418 -79.90918541 352.01129532 C-82.12398053 352.01388074 -84.33867877 352.0099025 -86.5534668 352.00439453 C-87.80234177 352.00359894 -89.05121674 352.00280334 -90.3379364 352.00198364 C-96.10999155 351.83101427 -101.86742247 351.31789058 -107.625 350.875 C-107.625 277.615 -107.625 204.355 -107.625 128.875 C-107.295 128.875 -106.965 128.875 -106.625 128.875 C-106.625 201.805 -106.625 274.735 -106.625 349.875 C-70.325 349.875 -34.025 349.875 3.375 349.875 C3.375 235.695 3.375 121.515 3.375 3.875 C1.065 3.875 -1.245 3.875 -3.625 3.875 C-4.615 3.875 -5.605 3.875 -6.625 3.875 C-3.325 -0.15833333 -3.325 -0.15833333 0 0 Z " fill="#92A1C7" transform="translate(591.625,324.125)"/>
<path d="M0 0 C0.33 0 0.66 0 1 0 C1.64395052 91.72940724 2.03682857 183.45877384 2.12283063 345.83648926 C2.12399361 357.1816867 2.1272076 368.526882 2.13157158 379.87207863 C2.13764628 395.78607495 2.1398504 411.70006501 2.13556135 427.61406213 C2.13514301 429.19637159 2.13472897 430.77868106 2.13431931 432.36099052 C2.1341172 433.13762959 2.1339151 433.91426866 2.13370688 434.71444225 C2.13253598 440.1383402 2.13381765 445.5622342 2.13615799 450.98613167 C2.13893166 457.5075624 2.13825922 464.02898116 2.13296442 470.55041055 C2.1303706 473.85265201 2.12989447 477.15486931 2.13267231 480.45711124 C2.13538984 484.01988991 2.13199289 487.5826108 2.12698364 491.14538574 C2.12921421 492.18315818 2.13144477 493.22093062 2.13374293 494.2901507 C2.13113534 495.24107692 2.12852775 496.19200314 2.12584114 497.1717453 C2.12567879 497.98957599 2.12551644 498.80740668 2.12534916 499.65002012 C1.99051387 502.17784096 1.55242187 504.53248038 1 507 C20.15874563 502.97529035 20.15874563 502.97529035 38.5625 496.4375 C42.44755913 494.81283891 46.33949387 493.81539802 50.41015625 492.765625 C53.22284118 492.01640093 53.22284118 492.01640093 56.5 490.25 C57.325 489.8375 58.15 489.425 59 489 C59.99 489.33 60.98 489.66 62 490 C60.58957044 490.84384675 59.17135868 491.67469496 57.75 492.5 C56.96109375 492.9640625 56.1721875 493.428125 55.359375 493.90625 C53 495 53 495 49 495 C49 495.66 49 496.32 49 497 C35.02845107 502.10837761 21.54209432 506.83870023 6.63037109 508.03833008 C5.78168457 508.11462646 4.93299805 508.19092285 4.05859375 508.26953125 C3.31923584 508.31698486 2.57987793 508.36443848 1.81811523 508.41333008 C-0.2141786 508.85131748 -0.2141786 508.85131748 -1.25366211 511.0456543 C-1.49995361 511.69058838 -1.74624512 512.33552246 -2 513 C-3.98 512.67 -5.96 512.34 -8 512 C-5.35261084 510.5393715 -4.10551666 510 -1 510 C-0.67 341.7 -0.34 173.4 0 0 Z " fill="#06207B" transform="translate(782,144)"/>
<path d="M0 0 C0.33 0 0.66 0 1 0 C2.43347938 26.59196381 2.11374579 53.222101 2.06846237 79.84193659 C2.05940372 85.88629988 2.05573579 91.93066368 2.05223143 97.97503231 C2.04521927 109.92443998 2.03445546 121.87384068 2.02050781 133.82324219 C2.01968 134.53360291 2.01885219 135.24396364 2.01799929 135.97585045 C2.01293846 140.30118878 2.00778646 144.62652701 2.00260353 148.9518652 C1.99477044 155.4900454 1.98702777 162.0282257 1.97949219 168.56640625 C1.97866406 169.28375911 1.97783593 170.00111197 1.97698271 170.7402028 C1.9633157 182.685328 1.95355102 194.63045335 1.94658184 206.57558429 C1.94170516 214.57666879 1.93173412 222.57772858 1.91815186 230.5788033 C1.91072229 235.52935128 1.90738311 240.47989573 1.9051857 245.43044853 C1.90330594 247.73236614 1.89968977 250.03428304 1.89425278 252.33619499 C1.8870912 255.46504209 1.88599654 258.59383293 1.88647461 261.72268677 C1.88287965 262.64326217 1.87928469 263.56383757 1.87558079 264.51230919 C1.74251038 268.893229 1.74251038 268.893229 3 273 C2.69397403 274.33986454 2.35718431 275.67285711 2 277 C1.90468176 279.82310196 1.86054 282.61538978 1.875 285.4375 C1.87113281 286.18837891 1.86726562 286.93925781 1.86328125 287.71289062 C1.87017926 291.63441075 2.18414092 295.15062853 3 299 C2.67 299.33 2.34 299.66 2 300 C1.89902996 302.5585428 1.86029027 305.08949516 1.8671875 307.6484375 C1.86623077 308.4167691 1.86527405 309.18510071 1.86428833 309.97671509 C1.86360643 311.60589683 1.86546139 313.23508126 1.86962891 314.86425781 C1.87496253 317.35748424 1.86969183 319.85052932 1.86328125 322.34375 C1.86394232 323.92447956 1.86522407 325.50520902 1.8671875 327.0859375 C1.86516327 327.83289886 1.86313904 328.57986023 1.86105347 329.34945679 C1.8753048 332.50191533 1.99552067 334.986562 3 338 C2.5625 340.1875 2.5625 340.1875 2 342 C25.06824808 341.25771236 48.10714049 340.0351605 71 337 C70.67 337.99 70.34 338.98 70 340 C58.20958566 340.93448478 58.20958566 340.93448478 52.83203125 341.25390625 C52.15148682 341.29523682 51.47094238 341.33656738 50.76977539 341.37915039 C48.82067693 341.49577117 46.87127913 341.60735548 44.921875 341.71875 C42.11131998 341.6766457 42.11131998 341.6766457 41 343 C20.705 343.495 20.705 343.495 0 344 C0 230.48 0 116.96 0 0 Z " fill="#09297F" transform="translate(597,331)"/>
<path d="M0 0 C0.91007813 0.00902344 1.82015625 0.01804687 2.7578125 0.02734375 C3.80582031 0.04474609 3.80582031 0.04474609 4.875 0.0625 C4.875 0.3925 4.875 0.7225 4.875 1.0625 C3.225 1.0625 1.575 1.0625 -0.125 1.0625 C-0.125 77.2925 -0.125 153.5225 -0.125 232.0625 C-0.785 231.7325 -1.445 231.4025 -2.125 231.0625 C-2.125 155.8225 -2.125 80.5825 -2.125 3.0625 C-12.68642837 3.5922995 -12.68642837 3.5922995 -23.125 5.0625 C-23.125 4.4025 -23.125 3.7425 -23.125 3.0625 C-21.99320313 2.92972656 -20.86140625 2.79695312 -19.6953125 2.66015625 C-18.21351821 2.4819658 -16.73174864 2.30356971 -15.25 2.125 C-14.13044922 1.99448242 -14.13044922 1.99448242 -12.98828125 1.86132812 C-8.40360582 1.30373246 -4.60942992 -0.05909526 0 0 Z " fill="#334D95" transform="translate(669.125,703.9375)"/>
<path d="M0 0 C7 0 7 0 10 2 C7.36 2 4.72 2 2 2 C2 78.23 2 154.46 2 233 C1.34 232.67 0.68 232.34 0 232 C0 155.44 0 78.88 0 0 Z " fill="#DCE3F6" transform="translate(669,705)"/>
<path d="M0 0 C2.375 0.875 2.375 0.875 4.375 2.875 C4.62339699 4.77128851 4.62339699 4.77128851 4.62109566 7.1347599 C4.62507775 8.03397466 4.62905985 8.93318942 4.63316262 9.85965312 C4.62733693 10.85380114 4.62151125 11.84794917 4.61550903 12.8722229 C4.61721788 13.92340471 4.61892673 14.97458651 4.62068737 16.05762231 C4.62399883 19.60309868 4.61295132 23.14838853 4.60205078 26.69384766 C4.60148703 29.22613012 4.60180253 31.75841292 4.60293579 34.29069519 C4.60339219 39.75442531 4.59769537 45.21809466 4.58646011 50.68181229 C4.57022627 58.58147913 4.56499928 66.48112286 4.56248413 74.38080458 C4.5581037 87.19659113 4.54478516 100.01235226 4.52587891 112.828125 C4.50752911 125.2796211 4.4933682 137.7311103 4.48486328 150.18261719 C4.48433783 150.9497496 4.48381239 151.71688202 4.48327102 152.50726087 C4.480661 156.35562587 4.47813357 160.20399092 4.47564721 164.052356 C4.45490387 195.99325581 4.41966888 227.93412438 4.375 259.875 C4.045 259.875 3.715 259.875 3.375 259.875 C3.375 175.395 3.375 90.915 3.375 3.875 C1.065 3.875 -1.245 3.875 -3.625 3.875 C-4.615 3.875 -5.605 3.875 -6.625 3.875 C-3.325 -0.15833333 -3.325 -0.15833333 0 0 Z " fill="#C0CAE4" transform="translate(591.625,324.125)"/>
<path d="M0 0 C0.495 1.485 0.495 1.485 1 3 C-0.56097474 4.1063219 -2.12385327 5.20995785 -3.6875 6.3125 C-4.55761719 6.92738281 -5.42773438 7.54226563 -6.32421875 8.17578125 C-13.40042827 13 -13.40042827 13 -17 13 C-17 13.66 -17 14.32 -17 15 C-26.49517579 19.91213844 -35.92811851 24.3643591 -46 28 C-46.5978833 28.22993652 -47.1957666 28.45987305 -47.81176758 28.69677734 C-53.03712651 30.70507716 -58.32391075 32.4005962 -63.6875 34 C-64.56092041 34.26200195 -65.43434082 34.52400391 -66.33422852 34.79394531 C-72.30665633 36.56118973 -78.27123685 38.09229421 -84.37109375 39.359375 C-87.06186109 39.92936435 -87.06186109 39.92936435 -89.66015625 41.203125 C-90.43230469 41.46609375 -91.20445312 41.7290625 -92 42 C-92.99 41.34 -93.98 40.68 -95 40 C-91.7 39.34 -88.4 38.68 -85 38 C-85 37.34 -85 36.68 -85 36 C-82.69 36 -80.38 36 -78 36 C-78 35.34 -78 34.68 -78 34 C-77.23300781 33.86464844 -76.46601562 33.72929688 -75.67578125 33.58984375 C-60.78317722 30.70126666 -46.47738664 25.52515849 -32.3984375 19.9453125 C-30.61892259 19.24394017 -28.81458999 18.60486333 -27 18 C-27 17.34 -27 16.68 -27 16 C-26.05125 15.608125 -25.1025 15.21625 -24.125 14.8125 C-20.91884449 13.43280193 -17.76478051 11.96227847 -14.625 10.4375 C-13.34496094 9.81681641 -13.34496094 9.81681641 -12.0390625 9.18359375 C-9.85341757 8.16437249 -9.85341757 8.16437249 -9 6 C-4.5 3 -4.5 3 -2 3 C-2 2.34 -2 1.68 -2 1 C-1.34 0.67 -0.68 0.34 0 0 Z " fill="#021C7A" transform="translate(923,640)"/>
<path d="M0 0 C-6.34671742 1.85501484 -12.42515625 3.30791118 -19 4 C-19.63808594 4.16371094 -20.27617188 4.32742188 -20.93359375 4.49609375 C-23.91850685 5.22398371 -26.91920818 5.38239665 -29.9765625 5.62109375 C-32.22074129 5.84415708 -32.22074129 5.84415708 -34 8 C-34.31436485 10.27390259 -34.31436485 10.27390259 -34.2784729 12.94802856 C-34.28963638 13.994133 -34.30079987 15.04023743 -34.31230164 16.11804199 C-34.31446182 17.27034302 -34.31662201 18.42264404 -34.31884766 19.60986328 C-34.32889328 20.81959808 -34.3389389 22.02933289 -34.34928894 23.27572632 C-34.37493294 26.5978535 -34.39175627 29.91980889 -34.40471697 33.24199533 C-34.42032079 36.71206972 -34.4471197 40.18205687 -34.4727478 43.65206909 C-34.51958445 50.22517328 -34.55630482 56.7982938 -34.58942068 63.37147987 C-34.62760764 70.85390442 -34.67702671 78.33624146 -34.72740483 85.81859231 C-34.83079731 101.21233167 -34.92003381 116.60612005 -35 132 C-35.33 132 -35.66 132 -36 132 C-36.33 90.75 -36.66 49.5 -37 7 C-39.97 6.505 -39.97 6.505 -43 6 C-43 5.67 -43 5.34 -43 5 C-41.824375 5.04125 -40.64875 5.0825 -39.4375 5.125 C-35.34021521 5.26876438 -31.91683362 4.14910261 -28 3 C-25.37561579 2.44596333 -22.76202961 1.91921308 -20.125 1.4375 C-19.42608643 1.30891602 -18.72717285 1.18033203 -18.00708008 1.04785156 C-4.28598577 -1.42866192 -4.28598577 -1.42866192 0 0 Z " fill="#07227C" transform="translate(818,684)"/>
<path d="M0 0 C0.33 0 0.66 0 1 0 C2.28077365 7.52454517 2.36096234 14.47150196 1 22 C2.41539062 21.96519531 2.41539062 21.96519531 3.859375 21.9296875 C10.02700492 21.84299391 15.85913844 21.80947953 21.9375 23 C27.39248096 24.05271562 32.68007162 24.11419412 38.20751953 24.03125 C42.74645066 23.97013431 47.10600462 24.23311555 51.60546875 24.77734375 C56.06086446 25.19163014 60.53012658 25.07648072 65 25 C65 25.66 65 26.32 65 27 C39.14730543 27.18983565 39.14730543 27.18983565 26.5625 26.5625 C25.74813477 26.52326416 24.93376953 26.48402832 24.09472656 26.44360352 C18.5120509 26.13192606 18.5120509 26.13192606 16.05932617 25.5 C13.75284583 24.93999149 11.60478822 24.78995845 9.234375 24.68359375 C7.90019531 24.62075195 7.90019531 24.62075195 6.5390625 24.55664062 C5.61867188 24.51732422 4.69828125 24.47800781 3.75 24.4375 C2.34621094 24.37272461 2.34621094 24.37272461 0.9140625 24.30664062 C-1.39048641 24.2008195 -3.69513839 24.09873443 -6 24 C-6 23.67 -6 23.34 -6 23 C-4.35 23 -2.7 23 -1 23 C-0.67 15.41 -0.34 7.82 0 0 Z " fill="#011869" transform="translate(418,648)"/>
<path d="M0 0 C0 0.33 0 0.66 0 1 C-14.65866665 2.55814517 -29.2675887 3.50237908 -44 4 C-45.24551699 8.81398781 -45.12689044 13.52346887 -45.09765625 18.45703125 C-45.0962413 19.35999435 -45.09482635 20.26295746 -45.09336853 21.19328308 C-45.08778823 24.06638963 -45.07523934 26.93941716 -45.0625 29.8125 C-45.05748245 31.76497283 -45.05291999 33.71744689 -45.04882812 35.66992188 C-45.03782525 40.44664485 -45.02057418 45.22330904 -45 50 C-45.99 50.495 -45.99 50.495 -47 51 C-47 34.83 -47 18.66 -47 2 C-13.98177677 -0.3690205 -13.98177677 -0.3690205 0 0 Z " fill="#062176" transform="translate(644,708)"/>
<path d="M0 0 C0.66 0 1.32 0 2 0 C1.67 1.98 1.34 3.96 1 6 C24.06824808 5.25771236 47.10714049 4.0351605 70 1 C69.67 1.99 69.34 2.98 69 4 C57.20958566 4.93448478 57.20958566 4.93448478 51.83203125 5.25390625 C51.15148682 5.29523682 50.47094238 5.33656738 49.76977539 5.37915039 C47.82067693 5.49577117 45.87127913 5.60735548 43.921875 5.71875 C41.11131998 5.6766457 41.11131998 5.6766457 40 7 C36.97192956 7.1603556 33.96414546 7.25960448 30.93359375 7.31640625 C30.02497086 7.33718735 29.11634796 7.35796844 28.18019104 7.37937927 C25.26604054 7.44497672 22.35179696 7.5038068 19.4375 7.5625 C17.46678709 7.60567554 15.49608374 7.64928951 13.52539062 7.69335938 C8.68369012 7.80066843 3.84189563 7.90190675 -1 8 C-0.67 5.36 -0.34 2.72 0 0 Z " fill="#01196A" transform="translate(598,667)"/>
<path d="M0 0 C3.63 0 7.26 0 11 0 C11 0.66 11 1.32 11 2 C11.82242187 1.97679687 12.64484375 1.95359375 13.4921875 1.9296875 C20.53410901 1.81584581 27.20088218 2.00965995 34 4 C34.495 4.495 34.495 4.495 35 5 C37.01311449 5.39569108 39.03597208 5.74252191 41.0625 6.0625 C42.16722656 6.23910156 43.27195312 6.41570313 44.41015625 6.59765625 C45.26480469 6.73042969 46.11945313 6.86320313 47 7 C47 7.66 47 8.32 47 9 C48.85625 8.938125 48.85625 8.938125 50.75 8.875 C56.61618748 8.85628808 62.25262878 9.91081967 68 11 C68 11.33 68 11.66 68 12 C61.30306812 12.32935731 54.98061482 11.70054462 48.375 10.6875 C47.57602295 10.56979248 46.7770459 10.45208496 45.95385742 10.33081055 C42.18099118 9.72281076 38.74130405 8.9853795 35.203125 7.52734375 C29.79385043 5.3626913 24.11017336 4.71642802 18.375 3.875 C17.26898438 3.70613281 16.16296875 3.53726563 15.0234375 3.36328125 C12.96593962 3.04921607 10.90789308 2.73870712 8.84912109 2.43310547 C5.89426173 1.98392633 2.94702186 1.49780406 0 1 C0 0.67 0 0.34 0 0 Z " fill="#091F70" transform="translate(247,647)"/>
<path d="M0 0 C0.625 1.875 0.625 1.875 1 4 C0.34 4.66 -0.32 5.32 -1 6 C-1.99 6 -2.98 6 -4 6 C-4.08507812 6.58910156 -4.17015625 7.17820312 -4.2578125 7.78515625 C-5.20978889 10.6260542 -6.54358857 11.5885968 -8.875 13.4375 C-12.12902712 16.02511197 -13.90797317 18.42365593 -16 22 C-17.43828401 23.74289297 -18.91961464 25.45097466 -20.4375 27.125 C-21.19933594 27.97320313 -21.96117187 28.82140625 -22.74609375 29.6953125 C-24.72749694 31.72135736 -26.68102397 33.3835839 -29 35 C-29.66 34.67 -30.32 34.34 -31 34 C-30.61142822 33.58637207 -30.22285645 33.17274414 -29.82250977 32.74658203 C-28.06677485 30.87495442 -26.31460417 29.00002666 -24.5625 27.125 C-23.95083984 26.47402344 -23.33917969 25.82304688 -22.70898438 25.15234375 C-22.12568359 24.52714844 -21.54238281 23.90195312 -20.94140625 23.2578125 C-20.40201416 22.6817627 -19.86262207 22.10571289 -19.30688477 21.51220703 C-17.90528819 20.0159761 -17.90528819 20.0159761 -17 18 C-16.34 18 -15.68 18 -15 18 C-14.73703125 17.40832031 -14.4740625 16.81664062 -14.203125 16.20703125 C-12.94622604 13.90135622 -11.65231376 12.4827015 -9.75 10.6875 C-6.25449813 7.30191957 -3.12222532 3.73144002 0 0 Z " fill="#2D4693" transform="translate(588,780)"/>
<path d="M0 0 C13.365 2.97 13.365 2.97 27 6 C27 6.66 27 7.32 27 8 C27.86367188 8.13019531 28.72734375 8.26039063 29.6171875 8.39453125 C39.81649317 10.22004208 48.926994 14.09567243 58 19 C56 20 56 20 53.35546875 19.328125 C51.78732422 18.79445313 51.78732422 18.79445313 50.1875 18.25 C49.14980469 17.90453125 48.11210938 17.5590625 47.04296875 17.203125 C44 16 44 16 41.546875 14.48828125 C38.46741065 12.68877831 35.50385916 11.86042694 32.0625 10.9375 C27.65546044 9.74342726 23.33070341 8.4435678 19 7 C12.71941542 5.27056367 6.47741855 3.73607029 0 3 C0 2.01 0 1.02 0 0 Z " fill="#011B74" transform="translate(837,537)"/>
<path d="M0 0 C22.275 1.485 22.275 1.485 45 3 C43 5 43 5 40.3737793 5.15112305 C39.28492432 5.10511963 38.19606934 5.05911621 37.07421875 5.01171875 C35.88505859 4.96466797 34.69589844 4.91761719 33.47070312 4.86914062 C32.22224609 4.80919922 30.97378906 4.74925781 29.6875 4.6875 C28.45064453 4.63916016 27.21378906 4.59082031 25.93945312 4.54101562 C16.66306668 4.14510286 16.66306668 4.14510286 13.60473633 3.47583008 C10.12967952 2.76039349 10.12967952 2.76039349 3 3 C2.67 9.27 2.34 15.54 2 22 C1.67 22 1.34 22 1 22 C0.67 14.74 0.34 7.48 0 0 Z " fill="#031C74" transform="translate(417,707)"/>
<path d="M0 0 C0.99 0.33 1.98 0.66 3 1 C1.58957044 1.84384675 0.17135868 2.67469496 -1.25 3.5 C-2.03890625 3.9640625 -2.8278125 4.428125 -3.640625 4.90625 C-6 6 -6 6 -10 6 C-10 6.66 -10 7.32 -10 8 C-13.76741573 9.31356822 -17.53933031 10.61317715 -21.31591797 11.90014648 C-22.59945067 12.33971026 -23.88170057 12.78303881 -25.16259766 13.23022461 C-27.00600426 13.87305724 -28.85452238 14.5011722 -30.703125 15.12890625 C-32.36843262 15.70233765 -32.36843262 15.70233765 -34.06738281 16.28735352 C-36.93856362 16.98507053 -38.28642487 17.04212832 -41 16 C-38.06497405 14.99263372 -35.12660539 13.99539496 -32.1875 13 C-31.35412109 12.71382812 -30.52074219 12.42765625 -29.66210938 12.1328125 C-28.85966797 11.86210938 -28.05722656 11.59140625 -27.23046875 11.3125 C-26.49207764 11.06113281 -25.75368652 10.80976562 -24.99291992 10.55078125 C-23 10 -23 10 -20 10 C-20 9.34 -20 8.68 -20 8 C-17.04143708 6.02762472 -15.08897465 5.39522616 -11.6875 4.5625 C-8.31280997 3.69319411 -5.64041718 2.82020859 -2.5 1.25 C-1.675 0.8375 -0.85 0.425 0 0 Z " fill="#00125A" transform="translate(841,633)"/>
<path d="M0 0 C0.33 0.66 0.66 1.32 1 2 C-1.75181915 6.32704272 -4.75423239 10.17744966 -8.25 13.9375 C-8.72800049 14.45602539 -9.20600098 14.97455078 -9.69848633 15.50878906 C-13.55152749 19.63534659 -17.61853821 23.43456978 -22 27 C-22.66 26.67 -23.32 26.34 -24 26 C-23.43152344 25.443125 -22.86304688 24.88625 -22.27734375 24.3125 C-16.44952886 18.55278979 -10.91476663 12.66427805 -5.8125 6.25 C-4.00372084 4.00461897 -2.07409062 2.00001596 0 0 Z " fill="#143393" transform="translate(770,837)"/>
<path d="M0 0 C0.66 0 1.32 0 2 0 C4.66299311 5.91184471 5.11227766 11.95215408 3.3828125 18.24609375 C0.00413388 25.91539522 -7.09343113 30.68339446 -14 35 C-14.66 34.67 -15.32 34.34 -16 34 C-9.77918671 28.46042851 -9.77918671 28.46042851 -6.25 26.375 C-1.88013631 23.70452775 -0.46847756 20.13982924 0.8125 15.3125 C2.19695049 9.49638068 1.79166713 5.6578962 0 0 Z " fill="#011769" transform="translate(886,583)"/>
<path d="M0 0 C2.375 0.875 2.375 0.875 4.375 2.875 C4.61550903 5.12759399 4.61550903 5.12759399 4.60205078 7.96728516 C4.60182419 9.55870834 4.60182419 9.55870834 4.60159302 11.18228149 C4.59127045 12.33126923 4.58094788 13.48025696 4.5703125 14.6640625 C4.5674826 15.83762299 4.56465271 17.01118347 4.56173706 18.2203064 C4.55051355 21.98030662 4.52540492 25.74007139 4.5 29.5 C4.48997301 32.0442674 4.48084668 34.58853852 4.47265625 37.1328125 C4.45056714 43.3802891 4.41706824 49.62762773 4.375 55.875 C4.045 55.875 3.715 55.875 3.375 55.875 C3.375 38.715 3.375 21.555 3.375 3.875 C1.065 3.875 -1.245 3.875 -3.625 3.875 C-4.615 3.875 -5.605 3.875 -6.625 3.875 C-3.325 -0.15833333 -3.325 -0.15833333 0 0 Z " fill="#BFCAE6" transform="translate(591.625,324.125)"/>
<path d="M0 0 C-0.47308594 0.4125 -0.94617188 0.825 -1.43359375 1.25 C-2.83540523 2.47419404 -4.2349623 3.7009722 -5.6328125 4.9296875 C-7.22277525 6.32024898 -8.82193283 7.70036077 -10.4296875 9.0703125 C-11.21601563 9.74835937 -12.00234375 10.42640625 -12.8125 11.125 C-13.54082031 11.74632812 -14.26914062 12.36765625 -15.01953125 13.0078125 C-17.16161346 15.16256975 -18.47073373 17.38750346 -20 20 C-22.6875 22.3125 -22.6875 22.3125 -25 24 C-25.66 23.67 -26.32 23.34 -27 23 C-26.57178955 22.5467334 -26.1435791 22.0934668 -25.70239258 21.62646484 C-23.73729331 19.54433536 -21.77488297 17.45968963 -19.8125 15.375 C-19.13896484 14.66214844 -18.46542969 13.94929687 -17.77148438 13.21484375 C-14.80820725 10.06365149 -11.88341548 6.91589224 -9.14453125 3.56640625 C-6.11190893 -0.06279751 -4.60810376 -1.53603459 0 0 Z " fill="#D5DCF1" transform="translate(413,509)"/>
<path d="M0 0 C3.17053197 0.56344882 6.33536204 1.15440802 9.5 1.75 C10.8303125 1.98589844 10.8303125 1.98589844 12.1875 2.2265625 C18.05808803 3.3488808 22.78297093 5.12978062 28 8 C29.99440876 8.92876879 31.99371512 9.8471718 34 10.75 C34.94875 11.17796875 35.8975 11.6059375 36.875 12.046875 C37.57625 12.36140625 38.2775 12.6759375 39 13 C35.35879332 14.33256282 33.33123446 13.65840377 29.8125 12.1875 C28.93207031 11.83042969 28.05164063 11.47335937 27.14453125 11.10546875 C25 10 25 10 24 8 C21.65092125 7.31068656 21.65092125 7.31068656 18.9375 6.875 C18.01839844 6.70742188 17.09929688 6.53984375 16.15234375 6.3671875 C15.44207031 6.24601563 14.73179687 6.12484375 14 6 C14 5.34 14 4.68 14 4 C12.989375 4.061875 11.97875 4.12375 10.9375 4.1875 C6.44500628 3.97357173 3.98914039 2.95386468 0 1 C0 0.67 0 0.34 0 0 Z " fill="#02196F" transform="translate(804,539)"/>
<path d="M0 0 C0.33 0.99 0.66 1.98 1 3 C-0.89451603 5.06372321 -2.79056563 7.12600157 -4.6875 9.1875 C-5.21794922 9.76564453 -5.74839844 10.34378906 -6.29492188 10.93945312 C-9.4569327 14.3730477 -12.67475068 17.72410503 -16 21 C-16.99 20.67 -17.98 20.34 -19 20 C-18.43152344 19.443125 -17.86304688 18.88625 -17.27734375 18.3125 C-12.83749841 13.92453933 -8.55624049 9.47906492 -4.5078125 4.7265625 C-3.06727105 3.07703058 -1.56673075 1.52920426 0 0 Z " fill="#CBD4ED" transform="translate(546,371)"/>
<path d="M0 0 C26.17654243 0.78110498 26.17654243 0.78110498 36 3 C36 3.33 36 3.66 36 4 C24.5318511 4.34176603 13.38144957 3.28241685 2 2 C2 2.66 2 3.32 2 4 C2.66 4.33 3.32 4.66 4 5 C2.35 4.67 0.7 4.34 -1 4 C-0.67 2.68 -0.34 1.36 0 0 Z " fill="#011B76" transform="translate(800,534)"/>
<path d="M0 0 C7.94571901 -0.30173616 15.77310563 0.20151609 23.6875 0.875 C24.68023926 0.95347168 25.67297852 1.03194336 26.69580078 1.11279297 C28.08968018 1.23871826 28.08968018 1.23871826 29.51171875 1.3671875 C30.77181763 1.47716064 30.77181763 1.47716064 32.05737305 1.58935547 C32.69843994 1.72486816 33.33950684 1.86038086 34 2 C34.495 2.99 34.495 2.99 35 4 C30.91622977 3.69304703 26.83308094 3.37847937 22.75 3.0625 C21.59113281 2.97548828 20.43226563 2.88847656 19.23828125 2.79882812 C17.56572266 2.66831055 17.56572266 2.66831055 15.859375 2.53515625 C14.83295898 2.456604 13.80654297 2.37805176 12.74902344 2.29711914 C10.40060427 2.04329799 8.26606418 1.64710829 6 1 C6 1.66 6 2.32 6 3 C8.97 3.495 8.97 3.495 12 4 C8.52128379 5.15957207 7.65780355 4.77456651 4.3125 3.5625 C3.50425781 3.27503906 2.69601562 2.98757813 1.86328125 2.69140625 C1.24839844 2.46324219 0.63351562 2.23507812 0 2 C0 1.34 0 0.68 0 0 Z " fill="#001156" transform="translate(802,536)"/>
<path d="M0 0 C0.33 0.99 0.66 1.98 1 3 C-0.56097474 4.1063219 -2.12385327 5.20995785 -3.6875 6.3125 C-4.55761719 6.92738281 -5.42773438 7.54226563 -6.32421875 8.17578125 C-13.40042827 13 -13.40042827 13 -17 13 C-17 13.66 -17 14.32 -17 15 C-21.455 16.485 -21.455 16.485 -26 18 C-26.33 17.34 -26.66 16.68 -27 16 C-26.05125 15.608125 -25.1025 15.21625 -24.125 14.8125 C-20.91884449 13.43280193 -17.76478051 11.96227847 -14.625 10.4375 C-13.77164063 10.02371094 -12.91828125 9.60992188 -12.0390625 9.18359375 C-9.85341757 8.16437249 -9.85341757 8.16437249 -9 6 C-4.5 3 -4.5 3 -2 3 C-2 2.34 -2 1.68 -2 1 C-1.34 0.67 -0.68 0.34 0 0 Z " fill="#011A73" transform="translate(923,640)"/>
<path d="M0 0 C-2.6803493 1.67521831 -4.97136519 2.18690163 -8.0625 2.5 C-12.0457203 2.70875489 -12.0457203 2.70875489 -15 5 C-17.26831055 5.22705078 -17.26831055 5.22705078 -19.88671875 5.1953125 C-20.82451172 5.18886719 -21.76230469 5.18242188 -22.72851562 5.17578125 C-24.19321289 5.15064453 -24.19321289 5.15064453 -25.6875 5.125 C-26.67556641 5.11597656 -27.66363281 5.10695313 -28.68164062 5.09765625 C-31.12133765 5.0740843 -33.56054697 5.04118022 -36 5 C-32.60838143 2.73892095 -31.12324473 2.69551319 -27.125 2.5 C-22.39516003 2.20966384 -17.80031184 1.7113074 -13.125 0.9375 C-8.6596006 0.20679828 -4.51604397 -0.21004856 0 0 Z " fill="#9196AC" transform="translate(710,700)"/>
<path d="M0 0 C0.66 0.33 1.32 0.66 2 1 C0.1145429 3.13504712 -1.78233712 5.25765603 -3.6875 7.375 C-4.48317383 8.27992188 -4.48317383 8.27992188 -5.29492188 9.203125 C-8.28418709 12.50415407 -10.57395084 14.7682609 -15 16 C-5.66197183 2.83098592 -5.66197183 2.83098592 0 0 Z " fill="#1C388E" transform="translate(572,799)"/>
<path d="M0 0 C0.91007813 0.00902344 1.82015625 0.01804687 2.7578125 0.02734375 C3.80582031 0.04474609 3.80582031 0.04474609 4.875 0.0625 C4.875 0.3925 4.875 0.7225 4.875 1.0625 C2.895 1.0625 0.915 1.0625 -1.125 1.0625 C-1.455 2.0525 -1.785 3.0425 -2.125 4.0625 C-3.22199219 4.05089844 -4.31898438 4.03929687 -5.44921875 4.02734375 C-6.90364412 4.01796036 -8.35807135 4.00886075 -9.8125 4 C-10.53373047 3.99162109 -11.25496094 3.98324219 -11.99804688 3.97460938 C-15.84055382 3.95706368 -19.39139526 4.12725779 -23.125 5.0625 C-23.125 4.4025 -23.125 3.7425 -23.125 3.0625 C-21.99320313 2.92972656 -20.86140625 2.79695312 -19.6953125 2.66015625 C-18.21351821 2.4819658 -16.73174864 2.30356971 -15.25 2.125 C-14.13044922 1.99448242 -14.13044922 1.99448242 -12.98828125 1.86132812 C-8.40360582 1.30373246 -4.60942992 -0.05909526 0 0 Z " fill="#0C216C" transform="translate(669.125,703.9375)"/>
<path d="M0 0 C0 3.65885288 -0.70804036 4.13424282 -3.125 6.75 C-3.75792969 7.44609375 -4.39085937 8.1421875 -5.04296875 8.859375 C-5.68878906 9.56578125 -6.33460938 10.2721875 -7 11 C-8.15130034 12.32861557 -9.29764388 13.6615532 -10.4375 15 C-11.283125 15.99 -12.12875 16.98 -13 18 C-13.99 17.67 -14.98 17.34 -16 17 C-13.52110175 14.35391507 -11.04183636 11.70817443 -8.5625 9.0625 C-7.85544922 8.30775391 -7.14839844 7.55300781 -6.41992188 6.77539062 C-5.40961914 5.69741211 -5.40961914 5.69741211 -4.37890625 4.59765625 C-3.7557251 3.93258057 -3.13254395 3.26750488 -2.49047852 2.58227539 C-1.6705087 1.71180457 -0.8455974 0.8455974 0 0 Z " fill="#203C92" transform="translate(372,791)"/>
<path d="M0 0 C0.33 0.66 0.66 1.32 1 2 C-2.33741704 7.80420355 -6.90942084 11.71434147 -12 16 C-12.66 15.67 -13.32 15.34 -14 15 C-9.38 10.05 -4.76 5.1 0 0 Z " fill="#C7D1EB" transform="translate(355,566)"/>
<path d="M0 0 C0.99 0.33 1.98 0.66 3 1 C-2.89993512 4.65433334 -8.15958963 6.86213677 -15 8 C-16.010625 8.20625 -17.02125 8.4125 -18.0625 8.625 C-18.701875 8.74875 -19.34125 8.8725 -20 9 C-17.54084342 6.03914258 -15.3900159 5.36033564 -11.6875 4.5 C-8.29220629 3.65678307 -5.65543549 2.82771775 -2.5 1.25 C-1.675 0.8375 -0.85 0.425 0 0 Z " fill="#011B76" transform="translate(841,633)"/>
<path d="M0 0 C1.81293089 0.14037521 3.6253443 0.28744889 5.4375 0.4375 C6.95150391 0.55931641 6.95150391 0.55931641 8.49609375 0.68359375 C11 1 11 1 12 2 C14.32817964 2.36760731 16.6618385 2.70241581 19 3 C19 3.66 19 4.32 19 5 C19.99 5.33 20.98 5.66 22 6 C15.64416673 5.13329546 9.32448699 4.06965872 3 3 C3 2.34 3 1.68 3 1 C2.01 0.67 1.02 0.34 0 0 Z " fill="#021D7B" transform="translate(186,632)"/>
<path d="M0 0 C0.33 0 0.66 0 1 0 C2.26612568 7.43848839 2.52494731 14.56588188 1 22 C1.99 22.33 2.98 22.66 4 23 C4 23.33 4 23.66 4 24 C0.7 24 -2.6 24 -6 24 C-6 23.67 -6 23.34 -6 23 C-4.35 23 -2.7 23 -1 23 C-0.67 15.41 -0.34 7.82 0 0 Z " fill="#0C2475" transform="translate(418,648)"/>
<path d="M0 0 C0.33 0.66 0.66 1.32 1 2 C0.11303819 4.53459617 -0.83010726 6.96923115 -1.875 9.4375 C-4.0632478 14.67050372 -4.0632478 14.67050372 -6 20 C-6.66 20 -7.32 20 -8 20 C-6.42974824 12.34023533 -4.55018413 6.39485337 0 0 Z " fill="#C2CCEA" transform="translate(493,428)"/>
<path d="M0 0 C0.73046875 1.73828125 0.73046875 1.73828125 1 4 C-0.51171875 6.10546875 -0.51171875 6.10546875 -2.6875 8.1875 C-3.74517578 9.22970703 -3.74517578 9.22970703 -4.82421875 10.29296875 C-6.97612297 11.98126703 -8.33004812 12.59619238 -11 13 C-8.35845491 8.79309485 -5.63204066 5.44088062 -2 2 C-1.34 1.34 -0.68 0.68 0 0 Z " fill="#223E90" transform="translate(388,773)"/>
<path d="M0 0 C0.66 0 1.32 0 2 0 C0.59012409 5.169545 -2.86322045 8.75341352 -7 12 C-9.2265625 12.703125 -9.2265625 12.703125 -11 13 C-10.62488281 12.56429687 -10.24976563 12.12859375 -9.86328125 11.6796875 C-9.35152344 11.08414063 -8.83976563 10.48859375 -8.3125 9.875 C-7.76722656 9.24207031 -7.22195313 8.60914063 -6.66015625 7.95703125 C-5.1557467 6.18359787 -3.70207646 4.37867921 -2.25 2.5625 C-1.5075 1.716875 -0.765 0.87125 0 0 Z " fill="#C7D2EE" transform="translate(772,141)"/>
<path d="M0 0 C0.33 0.99 0.66 1.98 1 3 C-0.23889596 4.48847937 -1.4915672 5.96550105 -2.75 7.4375 C-3.79414063 8.67306641 -3.79414063 8.67306641 -4.859375 9.93359375 C-7.01343015 12.01296451 -8.08310781 12.63867326 -11 13 C-9.7260411 10.96166576 -8.38938077 8.96147874 -7 7 C-6.34 7 -5.68 7 -5 7 C-4.731875 6.401875 -4.46375 5.80375 -4.1875 5.1875 C-3.01506533 3.02775192 -1.80630718 1.64209744 0 0 Z " fill="#1D3B95" transform="translate(334,832)"/>
<path d="M0 0 C0.33 0.99 0.66 1.98 1 3 C0.01 3.33 -0.98 3.66 -2 4 C-2.69658363 5.65438613 -3.36096883 7.32254318 -4 9 C-5.625 10.8125 -5.625 10.8125 -7 12 C-7.99 11.67 -8.98 11.34 -10 11 C-8.89718873 9.72799029 -7.79269231 8.45744147 -6.6875 7.1875 C-6.07261719 6.47980469 -5.45773437 5.77210938 -4.82421875 5.04296875 C-3.26665665 3.29863261 -1.67341125 1.63221959 0 0 Z " fill="#284599" transform="translate(525,849)"/>
<path d="M0 0 C0.33 0.66 0.66 1.32 1 2 C-1.98334854 7.01202555 -5.43951988 10.38748484 -10 14 C-10.66 13.67 -11.32 13.34 -12 13 C-10.75160427 11.58191941 -9.50120779 10.16560005 -8.25 8.75 C-7.55390625 7.96109375 -6.8578125 7.1721875 -6.140625 6.359375 C-4.15413084 4.16988144 -2.10898692 2.07098715 0 0 Z " fill="#224096" transform="translate(770,837)"/>
<path d="M0 0 C0.33 0.99 0.66 1.98 1 3 C-1.25 6.1875 -1.25 6.1875 -4 9 C-4.99 9 -5.98 9 -7 9 C-7.33 9.99 -7.66 10.98 -8 12 C-8.66 11.67 -9.32 11.34 -10 11 C-8.52116808 9.35386588 -7.04192523 7.70810092 -5.5625 6.0625 C-4.73878906 5.14597656 -3.91507813 4.22945312 -3.06640625 3.28515625 C-1 1 -1 1 0 0 Z " fill="#1F3D99" transform="translate(719,893)"/>
<path d="M0 0 C0.66 0 1.32 0 2 0 C0.43909056 3.83132316 -2.1075134 6.1075134 -5 9 C-5.33 9.99 -5.66 10.98 -6 12 C-8.0625 13.1875 -8.0625 13.1875 -10 14 C-10 13.01 -10 12.02 -10 11 C-9.34 11 -8.68 11 -8 11 C-8 10.01 -8 9.02 -8 8 C-7.34 8 -6.68 8 -6 8 C-6 7.34 -6 6.68 -6 6 C-5.34 6 -4.68 6 -4 6 C-3.34 4.68 -2.68 3.36 -2 2 C-1.34 2 -0.68 2 0 2 C0 1.34 0 0.68 0 0 Z " fill="#234096" transform="translate(523,393)"/>
<path d="M0 0 C0.66 0 1.32 0 2 0 C0.42219077 3.71045247 -1.90703248 6.29906384 -4.625 9.25 C-5.44226563 10.14203125 -6.25953125 11.0340625 -7.1015625 11.953125 C-7.72804688 12.62859375 -8.35453125 13.3040625 -9 14 C-9.33 13.01 -9.66 12.02 -10 11 C-8.71034824 9.62437146 -7.37310707 8.29233607 -6 7 C-5.34 7 -4.68 7 -4 7 C-3.34 5.35 -2.68 3.7 -2 2 C-1.34 2 -0.68 2 0 2 C0 1.34 0 0.68 0 0 Z " fill="#1A368C" transform="translate(585,325)"/>
<path d="M0 0 C0.33 0.99 0.66 1.98 1 3 C-1.29191702 6.48031844 -3.27777615 8.2629622 -7 10 C-7.99 11.485 -7.99 11.485 -9 13 C-9.66 12.67 -10.32 12.34 -11 12 C-9.625 10 -9.625 10 -8 8 C-7.34 8 -6.68 8 -6 8 C-5.7525 7.4225 -5.505 6.845 -5.25 6.25 C-3.83316683 3.6997003 -2.12372463 1.98214299 0 0 Z " fill="#24449C" transform="translate(708,905)"/>
<path d="M0 0 C0.66 0.33 1.32 0.66 2 1 C1.67 2.65 1.34 4.3 1 6 C2.98 6 4.96 6 7 6 C4.35261084 7.4606285 3.10551666 8 0 8 C-0.66 9.32 -1.32 10.64 -2 12 C-4.97 11.505 -4.97 11.505 -8 11 C-5.35261084 9.5393715 -4.10551666 9 -1 9 C-0.67 6.03 -0.34 3.06 0 0 Z " fill="#182B70" transform="translate(782,645)"/>
<path d="M0 0 C0 4.09632497 -1.55398196 5.76067881 -4 9 C-6.75 11.375 -6.75 11.375 -9 13 C-9.66 12.67 -10.32 12.34 -11 12 C-7.37 8.04 -3.74 4.08 0 0 Z " fill="#C2CDE9" transform="translate(397,520)"/>
<path d="M0 0 C5.27749285 0.53851968 9.25645564 1.77343836 14 4 C10.06329512 5.31223496 7.87511856 4.24296256 4 3 C4.33 3.66 4.66 4.32 5 5 C3.0625 4.1875 3.0625 4.1875 1 3 C0.67 2.01 0.34 1.02 0 0 Z " fill="#001260" transform="translate(142,619)"/>
<path d="M0 0 C0.66 0.33 1.32 0.66 2 1 C0.92173635 2.27513763 -0.16285519 3.54492569 -1.25 4.8125 C-1.85328125 5.52019531 -2.4565625 6.22789062 -3.078125 6.95703125 C-4.92370398 8.91889671 -6.79945332 10.45669625 -9 12 C-8.67 10.68 -8.34 9.36 -8 8 C-7.34 8 -6.68 8 -6 8 C-6 7.34 -6 6.68 -6 6 C-5.34 6 -4.68 6 -4 6 C-4 5.34 -4 4.68 -4 4 C-3.34 4 -2.68 4 -2 4 C-2 3.01 -2 2.02 -2 1 C-1.34 0.67 -0.68 0.34 0 0 Z " fill="#1D3A92" transform="translate(549,365)"/>
<path d="M0 0 C0.33 1.32 0.66 2.64 1 4 C-4.75 9 -4.75 9 -7 9 C-5.44499019 5.18315774 -2.96404505 2.80804268 0 0 Z " fill="#234197" transform="translate(536,837)"/>
<path d="M0 0 C2.375 0.875 2.375 0.875 4.375 2.875 C4 5 4 5 3.375 6.875 C3.375 5.885 3.375 4.895 3.375 3.875 C2.281875 3.875 1.18875 3.875 0.0625 3.875 C-2.16666667 3.875 -4.39583333 3.875 -6.625 3.875 C-3.325 -0.15833333 -3.325 -0.15833333 0 0 Z " fill="#AAB8DF" transform="translate(591.625,324.125)"/>
<path d="M0 0 C1.32 0.33 2.64 0.66 4 1 C1.03 3.97 -1.94 6.94 -5 10 C-5.33 9.01 -5.66 8.02 -6 7 C-5.34 7 -4.68 7 -4 7 C-3.67 6.01 -3.34 5.02 -3 4 C-2.34 4 -1.68 4 -1 4 C-0.67 2.68 -0.34 1.36 0 0 Z " fill="#15338D" transform="translate(365,551)"/>
<path d="M0 0 C0.33 0.66 0.66 1.32 1 2 C-0.76227632 5.61730402 -2.64326421 7.80075931 -6 10 C-6.66 9.67 -7.32 9.34 -8 9 C-5.50174717 5.78796065 -2.9297008 2.82506863 0 0 Z " fill="#C3CEEA" transform="translate(718,200)"/>
<path d="M0 0 C-1.5830577 4.2742558 -4.50568404 6.26531794 -8 9 C-8.66 8.67 -9.32 8.34 -10 8 C-8.71451591 6.66070495 -7.42141845 5.32871357 -6.125 4 C-5.04605469 2.88625 -5.04605469 2.88625 -3.9453125 1.75 C-2 0 -2 0 0 0 Z " fill="#C8D2EC" transform="translate(327,599)"/>
<path d="M0 0 C-1.38188453 3.21043882 -2.92421903 5.04936365 -5.625 7.25 C-6.57246094 8.03117188 -6.57246094 8.03117188 -7.5390625 8.828125 C-8.02117188 9.21484375 -8.50328125 9.6015625 -9 10 C-9 9.01 -9 8.02 -9 7 C-8.34 7 -7.68 7 -7 7 C-7 6.34 -7 5.68 -7 5 C-6.34 5 -5.68 5 -5 5 C-5 4.01 -5 3.02 -5 2 C-2 0 -2 0 0 0 Z " fill="#1A378E" transform="translate(726,191)"/>
<path d="M0 0 C0.33 0.66 0.66 1.32 1 2 C-0.76227632 5.61730402 -2.64326421 7.80075931 -6 10 C-6.66 9.67 -7.32 9.34 -8 9 C-6.38405168 6.95880212 -4.7143618 4.95927063 -3 3 C-2.34 3 -1.68 3 -1 3 C-0.67 2.01 -0.34 1.02 0 0 Z " fill="#011B76" transform="translate(932,630)"/>
<path d="M0 0 C0.33 0 0.66 0 1 0 C0.88490339 1.41750563 0.75746342 2.83401169 0.625 4.25 C0.55539062 5.03890625 0.48578125 5.8278125 0.4140625 6.640625 C-0.01507113 9.085877 -0.78600638 10.84836903 -2 13 C-3.18771723 9.57056481 -2.80226223 7.62215325 -1.5625 4.25 C-1.27503906 3.45078125 -0.98757813 2.6515625 -0.69140625 1.828125 C-0.46324219 1.22484375 -0.23507812 0.6215625 0 0 Z " fill="#B2BFE2" transform="translate(308,620)"/>
<path d="M0 0 C0.33 0.66 0.66 1.32 1 2 C-2.75 7.75 -2.75 7.75 -5 10 C-5.99 9.67 -6.98 9.34 -8 9 C-5.36 6.03 -2.72 3.06 0 0 Z " fill="#264399" transform="translate(733,877)"/>
<path d="M0 0 C1.60517097 0.08733576 3.20921662 0.19552224 4.8125 0.3125 C6.15248047 0.39951172 6.15248047 0.39951172 7.51953125 0.48828125 C10.30604 1.06313581 11.24135754 1.8206856 13 4 C11.58249437 3.88490339 10.16598831 3.75746342 8.75 3.625 C7.96109375 3.55539062 7.1721875 3.48578125 6.359375 3.4140625 C3.914123 2.98492887 2.15163097 2.21399362 0 1 C0 0.67 0 0.34 0 0 Z " fill="#021D7D" transform="translate(281,683)"/>
<path d="M0 0 C0.33 0.66 0.66 1.32 1 2 C-0.98 4.31 -2.96 6.62 -5 9 C-5.99 8.67 -6.98 8.34 -8 8 C-5.36 5.36 -2.72 2.72 0 0 Z " fill="#CBD5F0" transform="translate(703,217)"/>
<path d="M0 0 C-1.93144988 0.72466802 -3.87043949 1.42926777 -5.8125 2.125 C-6.89144531 2.51945313 -7.97039063 2.91390625 -9.08203125 3.3203125 C-10.04496094 3.54460938 -11.00789062 3.76890625 -12 4 C-12.99 3.34 -13.98 2.68 -15 2 C-13.06524329 1.46906676 -11.12706845 0.95057683 -9.1875 0.4375 C-8.10855469 0.14746094 -7.02960937 -0.14257812 -5.91796875 -0.44140625 C-3 -1 -3 -1 0 0 Z " fill="#032081" transform="translate(843,678)"/>
<path d="M0 0 C0.66 0.33 1.32 0.66 2 1 C0.50902342 4.7952131 -1.75700849 6.61042731 -5 9 C-5.66 8.67 -6.32 8.34 -7 8 C-4.69 5.36 -2.38 2.72 0 0 Z " fill="#BFCAE7" transform="translate(381,537)"/>
<path d="M0 0 C0.99 0.33 1.98 0.66 3 1 C0.69 3.64 -1.62 6.28 -4 9 C-4.33 8.01 -4.66 7.02 -5 6 C-3.625 4.5 -3.625 4.5 -2 3 C-1.34 3 -0.68 3 0 3 C0 2.01 0 1.02 0 0 Z " fill="#193690" transform="translate(745,167)"/>
<path d="M0 0 C0.6875 1.8125 0.6875 1.8125 1 4 C-0.25 5.75 -0.25 5.75 -2 7 C-2.99 7 -3.98 7 -5 7 C-3.70700306 4.11562221 -2.34058637 2.12780579 0 0 Z " fill="#244196" transform="translate(322,845)"/>
<path d="M0 0 C4.05606165 0.46800711 7.46588679 0.87953208 11 3 C11 3.66 11 4.32 11 5 C2.28571429 3.14285714 2.28571429 3.14285714 0 0 Z " fill="#001563" transform="translate(220,662)"/>
<path d="M0 0 C0 3.97054597 -1.3139381 5.16471244 -4 8 C-6.140625 8.6484375 -6.140625 8.6484375 -8 9 C-7.04270084 7.87411986 -6.08412105 6.7493285 -5.125 5.625 C-4.59132813 4.99851562 -4.05765625 4.37203125 -3.5078125 3.7265625 C-2.38567993 2.44163349 -1.20628025 1.20628025 0 0 Z " fill="#C6D0ED" transform="translate(514,406)"/>
<path d="M0 0 C0.33 0.66 0.66 1.32 1 2 C-0.43257963 4.72872311 -1.81722366 6.81722366 -4 9 C-4.99 8.67 -5.98 8.34 -7 8 C-4.69 5.36 -2.38 2.72 0 0 Z " fill="#C1CBE9" transform="translate(526,392)"/>
<path d="M0 0 C0.33 0.66 0.66 1.32 1 2 C0.25 4.0625 0.25 4.0625 -1 6 C-1.99 6.33 -2.98 6.66 -4 7 C-4.33 7.66 -4.66 8.32 -5 9 C-5.66 8.67 -6.32 8.34 -7 8 C-6.34 7.01 -5.68 6.02 -5 5 C-4.34 5 -3.68 5 -3 5 C-2.690625 4.360625 -2.38125 3.72125 -2.0625 3.0625 C-1 1 -1 1 0 0 Z " fill="#304B97" transform="translate(399,761)"/>
<path d="M0 0 C0.33 0.99 0.66 1.98 1 3 C-0.25 5.1875 -0.25 5.1875 -2 7 C-2.99 7 -3.98 7 -5 7 C-3.70700306 4.11562221 -2.34058637 2.12780579 0 0 Z " fill="#29489F" transform="translate(334,832)"/>
<path d="M0 0 C4.31392226 0.4793247 6.16569547 1.7457985 9 5 C4.98525763 5 3.18024863 3.33218233 0 1 C0 0.67 0 0.34 0 0 Z " fill="#001564" transform="translate(150,627)"/>
<path d="M0 0 C0.66 0.33 1.32 0.66 2 1 C-0.77280706 4.08089673 -3.06326356 5.68775452 -7 7 C-4.78071806 4.09197539 -3.07030857 2.04687238 0 0 Z " fill="#031C79" transform="translate(877,611)"/>
<path d="M0 0 C0.66 0.33 1.32 0.66 2 1 C-0.475 4.465 -0.475 4.465 -3 8 C-3.99 7.67 -4.98 7.34 -6 7 C-4.02 4.69 -2.04 2.38 0 0 Z " fill="#C3CDEB" transform="translate(336,586)"/>
<path d="M0 0 C5.66153846 1.47692308 5.66153846 1.47692308 7.375 4.125 C7.684375 5.053125 7.684375 5.053125 8 6 C4.08597051 4.73058503 2.20927127 3.48832306 0 0 Z " fill="#01196E" transform="translate(871,568)"/>
<path d="M0 0 C0.99 0.33 1.98 0.66 3 1 C1.02 3.31 -0.96 5.62 -3 8 C-3.33 7.01 -3.66 6.02 -4 5 C-3.34 4.01 -2.68 3.02 -2 2 C-1.34 2 -0.68 2 0 2 C0 1.34 0 0.68 0 0 Z " fill="#1B388D" transform="translate(373,543)"/>
<path d="M0 0 C0.99 0.33 1.98 0.66 3 1 C1.35 2.65 -0.3 4.3 -2 6 C-2.99 5.67 -3.98 5.34 -5 5 C-3.35 3.35 -1.7 1.7 0 0 Z " fill="#C2CDEA" transform="translate(532,386)"/>
<path d="M0 0 C0.33 0.66 0.66 1.32 1 2 C-0.32 3.65 -1.64 5.3 -3 7 C-3.99 6.67 -4.98 6.34 -6 6 C-4.02 4.02 -2.04 2.04 0 0 Z " fill="#28469D" transform="translate(504,872)"/>
<path d="M0 0 C0.99 0.33 1.98 0.66 3 1 C0.03 3.475 0.03 3.475 -3 6 C-3.66 5.67 -4.32 5.34 -5 5 C-3.35 3.35 -1.7 1.7 0 0 Z " fill="#244196" transform="translate(751,858)"/>
<path d="M0 0 C0.99 0.33 1.98 0.66 3 1 C0.03 3.475 0.03 3.475 -3 6 C-3.66 5.67 -4.32 5.34 -5 5 C-3.35 3.35 -1.7 1.7 0 0 Z " fill="#C3CDEA" transform="translate(688,233)"/>
<path d="M0 0 C0 3.57575896 -1.08840607 5.05295935 -3 8 C-3.99 7.67 -4.98 7.34 -6 7 C-4.02 4.69 -2.04 2.38 0 0 Z " fill="#C5CFEB" transform="translate(740,176)"/>
</svg>
