<?xml version="1.0" encoding="UTF-8"?>
<svg id="Capa_1" xmlns="http://www.w3.org/2000/svg" viewBox="0 0 1075.87 1070.3">
  <defs>
    <style>
      .cls-1 {
        fill: #fff;
        fill-rule: evenodd;
      }
    </style>
  </defs>
  <path class="cls-1" d="M601.99,983.01c-.71,9.53-3.4,19-8.1,27.79l-18.13,33.9c6.61,3.8,13.35,7.78,19.95,11.39,15.75,8.66,35.69,2.06,44.23-13.49,8.84-16.05,2.8-36.24-13.12-45.18-8.23-4.6-16.51-9.72-24.82-14.41ZM376.63,638.74c49.39,52.97,106.53,29.87,160.8,7.91,49.6-20.08,97.22-39.34,142.59-13.49l176.54,100.58c6.3,3.59,11.84,8,16.51,12.99.89.96,1.76,1.93,2.59,2.93l26.26-10.95-90.04-232.15c-40.09,21.44-69.21,9.13-108.63-6.99-43.04-17.58-93.46-38.18-162.1,8.88-37.48,25.6-67.56,62.04-105.44,90.47-18.77,14.08-38.51,27.35-59.1,39.83ZM384.91,819.29c-14.36-7.67-30.81-10.09-46.76-6.92-2.83-22.7-16.39-42.71-36.66-53.54-27.64-14.74-61.83-9.33-83.62,12.96-4.36-22.49-10.38-44.38-35.8-54.25-1.52-.6-4.06-1.66-7.38-3.09l101.34-229.18,11.67,5.38c35.48,19.69,68.37,11.99,104.09,3.62,32.13-7.53,67.07-15.71,106.62,1.72-28.87,24.03-53.91,51.67-84.12,74.34-20.71,15.54-43.43,30.42-67.83,44.66-12.5,7.3-15.72,24.06-6.86,35.48,67.93,87.37,141.54,57.58,211.28,29.36,41.42-16.76,81.19-32.86,111.48-15.59l176.55,100.59c15.71,8.94,22.14,28.87,13.31,45.03-9.09,15.71-28.35,22.24-44.59,13.42-40.41-23.11-81.28-45.54-121.71-68.66-8.59-4.91-19.53-1.94-24.45,6.65-4.91,8.58-1.93,19.52,6.65,24.43,40.41,23.11,81.03,45.86,121.66,68.61,15.88,8.93,22.04,28.98,13.18,45.07-8.56,15.54-29.24,22.1-44.88,13.12l-159.92-89.95c-8.62-4.84-19.53-1.76-24.37,6.86-4.84,8.63-1.76,19.53,6.87,24.37,43.5,24.47,86.92,49.34,130.42,73.73,16.04,9.02,22.04,29.1,13.11,45.29-8.88,15.85-29.02,21.63-44.94,12.85l-92.96-52.59c-5.89-7.22-13.12-13.13-21.34-17.53-17.1-9.13-37-10.8-55.35-4.72-5.13-18.64-17.54-34.27-34.68-43.41-17.1-9.11-37-10.79-55.34-4.72-5.15-18.64-17.55-34.27-34.69-43.4ZM466.62,1029.6c-2.58,14.62,4.59,29.62,17.73,36.65,16.77,8.96,37.92,2.57,46.89-14.19l31.07-58.1c8.98-16.76,2.42-37.97-14.19-46.85-13.96-7.45-31.56-4.32-42.13,7.41l-39.37,75.08ZM475.28,938.12c3.89-15.32-3.19-31.68-17.18-39.15-13.96-7.44-31.56-4.32-42.14,7.41l-43.94,84.27c-2.15,14.4,4.99,28.86,17.89,35.75,15.21,8.13,34.44,3.64,44.49-10.37l40.88-77.92ZM385.26,889.99c3.89-15.31-3.2-31.68-17.19-39.13-12.96-6.92-29.04-4.81-39.83,5.08l-50.98,91.19c-8.97,16.75-2.55,37.89,14.21,46.85,16.97,9.07,37.96,2.46,47-14.43l46.8-89.56ZM299.81,835.29c7.51-16.45.82-36.36-15.17-44.89-16.77-8.94-37.92-2.58-46.89,14.19l-32.42,60.58c-8.96,16.76-2.55,37.9,14.21,46.86,12.9,6.9,28.87,4.81,39.67-4.95l40.6-71.79ZM537.94,0l235.66,100.95v190.48c0,66.93-22.97,126.54-61.77,173.11-14.47-5.89-29.67-11.84-45.93-16,3.95-4.06,7.74-8.27,11.37-12.63,32.37-38.84,51.49-88.41,51.49-144.48v-149.11c0-7.84-5.04-14.51-12.07-16.94l-171.76-73.58c-4.65-1.98-9.7-1.83-14.01,0l-172.9,74.07c-6.81,2.89-10.89,9.5-10.89,16.45l-.04,149.11c0,56.08,19.12,105.65,51.49,144.48,4.93,5.9,10.15,11.55,15.66,16.93-10.47,1.85-20.64,4.24-30.58,6.56-6.86,1.61-13.59,3.19-20.18,4.49-38.46-46.47-61.21-105.84-61.21-172.46V100.95L537.94,0ZM537.94,87.71l-154.98,66.38v137.34c0,47.43,16.01,89.16,43.09,121.66,11.9,14.27,25.95,26.79,41.74,37.29,19.69,2.27,40.59,8.7,63.08,22.06,32.51-20.3,61.34-28.31,87.45-29.33,11.68-8.85,22.26-18.91,31.51-30.02,27.08-32.5,43.09-74.23,43.09-121.66v-137.34l-154.97-66.38ZM647.57,243.71c-38.27,38.6-76.26,77.45-114.7,115.87-11.24,11.23-29.46,11.23-40.7,0l-63.76-63.74c-11.24-11.24-11.24-29.45,0-40.69,11.23-11.23,29.46-11.23,40.69,0l43.36,43.33,94.34-95.24c11.17-11.28,29.39-11.32,40.64-.13,11.24,11.17,11.28,29.33.13,40.59ZM1073.77,720.56l-128.47-331.24c-6.21-16.02-24.4-24.05-40.43-17.84l-63.79,24.72c-16.02,6.21-24.05,24.4-17.84,40.42l128.47,331.24c6.21,16.02,24.4,24.05,40.43,17.84l63.79-24.72c16.02-6.21,24.05-24.4,17.84-40.42ZM896.31,465.26c-11.74,0-21.26-9.51-21.26-21.25s9.51-21.26,21.26-21.26,21.26,9.51,21.26,21.26-9.53,21.25-21.26,21.25ZM250.13,377.96l-62.58-27.64c-15.72-6.95-34.26.22-41.21,15.93L2.65,691.2c-6.95,15.71.23,34.25,15.94,41.18l62.58,27.65c15.71,6.95,34.26-.23,41.21-15.94l143.68-324.94c6.95-15.71-.23-34.25-15.94-41.2ZM191.75,444.38c-11.73-.54-20.79-10.49-20.25-22.22.54-11.72,10.49-20.78,22.22-20.23,11.73.53,20.79,10.49,20.25,22.21s-10.49,20.79-22.22,20.25Z"/>
</svg>