<?xml version="1.0" encoding="UTF-8"?>
<svg id="Capa_1" xmlns="http://www.w3.org/2000/svg" xmlns:xlink="http://www.w3.org/1999/xlink" viewBox="0 0 1336.81 1078.47">
  <defs>
    <style>
      .cls-1 {
        fill: #fff;
      }

      .cls-2 {
        fill: none;
      }

      .cls-3 {
        clip-path: url(#clippath-1);
      }

      .cls-4 {
        clip-path: url(#clippath-2);
      }

      .cls-5 {
        clip-path: url(#clippath);
      }
    </style>
    <clipPath id="clippath">
      <rect class="cls-2" x="442.82" width="449.73" height="447.4"/>
    </clipPath>
    <clipPath id="clippath-1">
      <rect class="cls-2" y="415.97" width="430.44" height="662.5"/>
    </clipPath>
    <clipPath id="clippath-2">
      <rect class="cls-2" x="909.06" y="415.97" width="427.75" height="662.5"/>
    </clipPath>
  </defs>
  <g class="cls-5">
    <path class="cls-1" d="M445.61,178.14v89.31h50.32c4.22,16.26,10.61,31.62,18.94,45.72l-35.57,35.57,63.13,63.15,35.6-35.6c14.12,8.32,29.46,14.7,45.72,18.89v50.43h89.31v-50.45c16.25-4.21,31.54-10.61,45.64-18.92l35.68,35.68,63.13-63.15-35.68-35.7c8.3-14.07,14.68-29.38,18.87-45.63h50.51v-89.31h-50.51c-4.19-16.21-10.57-31.53-18.87-45.63l35.68-35.68-63.13-63.15-35.7,35.68c-14.1-8.3-29.41-14.7-45.63-18.91V0h-89.31v50.4c-16.26,4.19-31.59,10.57-45.72,18.89l-35.6-35.6-63.13,63.15,35.57,35.57c-8.33,14.13-14.72,29.46-18.94,45.74h-50.32ZM668.41,133.68c49.21,0,89.11,39.91,89.11,89.13s-39.91,89.11-89.11,89.11-89.13-39.91-89.13-89.11,39.91-89.13,89.13-89.13Z"/>
  </g>
  <path class="cls-1" d="M222.8,410.06c0,2.92-.15,5.82-.44,8.74-.29,2.9-.71,5.79-1.29,8.64-.56,2.87-1.27,5.71-2.13,8.49-.84,2.79-1.82,5.53-2.93,8.24-1.13,2.69-2.37,5.33-3.74,7.9-1.39,2.58-2.88,5.08-4.5,7.51-1.63,2.42-3.37,4.77-5.22,7.03s-3.8,4.42-5.87,6.48c-2.06,2.06-4.22,4.01-6.48,5.87-2.26,1.85-4.59,3.59-7.03,5.21-2.43,1.63-4.93,3.13-7.49,4.5-2.58,1.39-5.22,2.63-7.91,3.74-2.69,1.13-5.45,2.11-8.24,2.95-2.79.85-5.62,1.56-8.48,2.13-2.87.56-5.75,1-8.65,1.29-2.9.27-5.82.42-8.74.42s-5.83-.15-8.74-.42c-2.9-.29-5.79-.73-8.65-1.29-2.85-.56-5.69-1.27-8.48-2.13-2.8-.84-5.54-1.82-8.24-2.95-2.69-1.11-5.33-2.35-7.91-3.74-2.56-1.37-5.08-2.87-7.49-4.5-2.43-1.61-4.77-3.35-7.03-5.21-2.26-1.85-4.42-3.8-6.48-5.87s-4.03-4.22-5.88-6.48c-1.84-2.26-3.58-4.61-5.21-7.03-1.61-2.43-3.11-4.93-4.5-7.51-1.37-2.56-2.61-5.21-3.74-7.9-1.11-2.71-2.1-5.45-2.95-8.24-.84-2.79-1.55-5.62-2.11-8.49-.58-2.85-1-5.74-1.29-8.64-.29-2.92-.44-5.82-.44-8.74s.15-5.83.44-8.74c.29-2.92.71-5.79,1.29-8.65.56-2.87,1.27-5.69,2.11-8.48.85-2.8,1.84-5.54,2.95-8.24,1.13-2.71,2.37-5.33,3.74-7.91,1.39-2.58,2.88-5.08,4.5-7.49,1.63-2.43,3.37-4.77,5.21-7.03,1.85-2.26,3.82-4.42,5.88-6.48s4.22-4.03,6.48-5.88c2.26-1.85,4.59-3.58,7.03-5.21,2.42-1.63,4.93-3.13,7.49-4.5,2.58-1.37,5.22-2.63,7.91-3.74,2.69-1.11,5.43-2.1,8.24-2.95,2.79-.84,5.62-1.55,8.48-2.13,2.87-.56,5.75-1,8.65-1.27,2.9-.29,5.82-.44,8.74-.44s5.83.15,8.74.44c2.9.27,5.79.71,8.65,1.27,2.85.58,5.69,1.29,8.48,2.13,2.79.85,5.54,1.84,8.24,2.95,2.69,1.11,5.33,2.37,7.91,3.74,2.56,1.37,5.06,2.87,7.49,4.5,2.43,1.63,4.77,3.35,7.03,5.21,2.26,1.85,4.42,3.82,6.48,5.88,2.06,2.06,4.01,4.22,5.87,6.48,1.85,2.26,3.59,4.59,5.22,7.03,1.61,2.42,3.11,4.92,4.5,7.49,1.37,2.58,2.61,5.21,3.74,7.91,1.11,2.69,2.1,5.43,2.93,8.24.85,2.79,1.56,5.61,2.13,8.48.58,2.87,1,5.74,1.29,8.65.29,2.9.44,5.82.44,8.74Z"/>
  <g class="cls-3">
    <path class="cls-1" d="M44.55,788.81v245.09c0,24.61,19.95,44.56,44.56,44.56h89.13c24.61,0,44.56-19.95,44.56-44.56v-445.61l185.35-101.09c19.6-10.7,24.88-36.42,11.09-53.99-10.59-13.47-29.19-17.63-44.52-9.98l-151.92,75.93H89.11C39.89,499.17,0,539.07,0,588.3v155.97c0,24.61,19.94,44.55,44.55,44.55Z"/>
  </g>
  <path class="cls-1" d="M1292.26,410.06c0,2.92-.15,5.82-.44,8.74-.29,2.9-.71,5.79-1.29,8.64-.56,2.87-1.27,5.71-2.11,8.49-.85,2.79-1.84,5.53-2.95,8.24-1.13,2.69-2.37,5.33-3.74,7.9-1.39,2.58-2.88,5.08-4.5,7.51-1.63,2.42-3.37,4.77-5.21,7.03-1.85,2.26-3.82,4.42-5.88,6.48s-4.22,4.01-6.48,5.87c-2.26,1.85-4.59,3.59-7.03,5.21-2.42,1.63-4.93,3.13-7.49,4.5-2.58,1.39-5.21,2.63-7.91,3.74-2.69,1.13-5.43,2.11-8.24,2.95-2.79.85-5.62,1.56-8.48,2.13-2.87.56-5.75,1-8.65,1.29-2.9.27-5.82.42-8.74.42s-5.83-.15-8.74-.42c-2.9-.29-5.79-.73-8.65-1.29-2.85-.56-5.69-1.27-8.48-2.13-2.79-.84-5.54-1.82-8.24-2.95-2.69-1.11-5.33-2.35-7.91-3.74-2.56-1.37-5.06-2.87-7.49-4.5-2.43-1.61-4.77-3.35-7.03-5.21-2.26-1.85-4.42-3.8-6.48-5.87-2.06-2.06-4.01-4.22-5.87-6.48-1.85-2.26-3.59-4.61-5.22-7.03-1.61-2.43-3.11-4.93-4.5-7.51-1.37-2.56-2.61-5.21-3.74-7.9-1.11-2.71-2.1-5.45-2.93-8.24-.85-2.79-1.56-5.62-2.13-8.49-.58-2.85-1-5.74-1.29-8.64-.29-2.92-.42-5.82-.42-8.74s.13-5.83.42-8.74c.29-2.92.71-5.79,1.29-8.65.56-2.87,1.27-5.69,2.13-8.48.84-2.8,1.82-5.54,2.93-8.24,1.13-2.71,2.37-5.33,3.74-7.91,1.39-2.58,2.88-5.08,4.5-7.49,1.63-2.43,3.37-4.77,5.22-7.03,1.85-2.26,3.8-4.42,5.87-6.48,2.06-2.06,4.22-4.03,6.48-5.88,2.26-1.85,4.59-3.58,7.03-5.21,2.43-1.63,4.93-3.13,7.49-4.5,2.58-1.37,5.22-2.63,7.91-3.74,2.69-1.11,5.45-2.1,8.24-2.95,2.79-.84,5.62-1.55,8.48-2.13,2.87-.56,5.75-1,8.65-1.27,2.9-.29,5.82-.44,8.74-.44s5.83.15,8.74.44c2.9.27,5.79.71,8.65,1.27,2.85.58,5.69,1.29,8.48,2.13,2.8.85,5.54,1.84,8.24,2.95,2.71,1.11,5.33,2.37,7.91,3.74,2.56,1.37,5.08,2.87,7.49,4.5,2.43,1.63,4.77,3.35,7.03,5.21,2.26,1.85,4.42,3.82,6.48,5.88s4.03,4.22,5.88,6.48c1.84,2.26,3.58,4.59,5.21,7.03,1.61,2.42,3.11,4.92,4.5,7.49,1.37,2.58,2.61,5.21,3.74,7.91,1.11,2.69,2.1,5.43,2.95,8.24.84,2.79,1.55,5.61,2.11,8.48.58,2.87,1,5.74,1.29,8.65.29,2.9.44,5.82.44,8.74Z"/>
  <g class="cls-4">
    <path class="cls-1" d="M1336.83,744.26v-155.97c0-49.22-39.91-89.13-89.13-89.13h-133.68l-151.92-75.94c-15.33-7.67-33.93-3.5-44.52,9.98-13.78,17.55-8.51,43.29,11.1,53.99l185.33,101.1v445.61c0,24.61,19.94,44.56,44.55,44.56h89.13c24.61,0,44.56-19.95,44.56-44.56v-245.09c24.61,0,44.56-19.94,44.56-44.55Z"/>
  </g>
</svg>