<?xml version="1.0" encoding="UTF-8"?>
<svg id="Capa_1" xmlns="http://www.w3.org/2000/svg" xmlns:xlink="http://www.w3.org/1999/xlink"
  viewBox="0 0 952.73 1058.04">
  <defs>
    <style>
      .cls-1 {
      fill: #fff;
      }

      .cls-2 {
      fill: none;
      }

      .cls-3 {
      clip-path: url(#clippath-1);
      }

      .cls-4 {
      clip-path: url(#clippath-2);
      }

      .cls-5 {
      clip-path: url(#clippath);
      }
    </style>
    <clipPath id="clippath">
      <rect class="cls-2" x="227.8" width="215.53" height="73.26" />
    </clipPath>
    <clipPath id="clippath-1">
      <rect class="cls-2" x="420.47" y="455.33" width="532.26" height="466.98" />
    </clipPath>
    <clipPath id="clippath-2">
      <rect class="cls-2" x="0" y="14.48" width="671.92" height="1043.56" />
    </clipPath>
  </defs>
  <g class="cls-5">
    <path class="cls-1" d="M229.37,0h211.71v70.54h-211.71V0Z" />
  </g>
  <path class="cls-1"
    d="M688.28,789.12c-76.82,0-139.13,62.31-139.13,138.91v19.96c40.4,25.04,88.02,39.51,138.94,39.51s98.53-14.47,138.94-39.51v-19.96c0-37.32-14.4-72.24-40.54-98.36-26.14-26.16-61-40.55-98.21-40.55Z" />
  <g class="cls-3">
    <path class="cls-1"
      d="M688.09,458.48c-95.49,0-179.35,50.81-225.86,126.81-.82,2.45-2.14,4.66-3.85,6.48-22.23,38.69-34.94,83.5-34.94,131.22,0,9.5.51,18.87,1.51,28.1.46,1.57.7,3.24.7,4.96,0,.28,0,.6-.03.88v.03c8.43,65.5,40.93,123.59,88.35,165.03,1.48-44.43,19.39-85.85,50.79-117.27,16.61-16.6,36.01-29.4,57.19-38.01-27.83-20.4-45.95-53.32-45.95-90.4,0-61.77,50.28-112.02,112.09-112.02s112.08,50.26,112.08,112.02c0,37.06-18.09,69.97-45.9,90.38,21.18,8.61,40.58,21.44,57.16,38.06,31.39,31.34,49.29,72.79,50.77,117.24,55.46-48.47,90.53-119.7,90.53-199,0-145.85-118.71-264.51-264.64-264.51Z" />
  </g>
  <path class="cls-1"
    d="M635.15,70.54v357.35c11.56-2.08,23.33-3.47,35.3-4.15V17.63h-194.08v35.27h141.15c9.75,0,17.64,7.9,17.64,17.64Z" />
  <g class="cls-4">
    <path class="cls-1"
      d="M617.51,1022.77H52.94c-9.76,0-17.64-7.9-17.64-17.64V70.54c0-9.75,7.88-17.64,17.64-17.64h141.15V17.63H0v1040.4h670.45v-35.79c-13.61-.77-27-2.49-40.05-5.05-3.23,3.44-7.81,5.59-12.88,5.59Z" />
  </g>
  <path class="cls-1"
    d="M70.58,88.17v899.33h476.45c-6.74-3.6-13.3-7.44-19.7-11.53-4.08-.97-7.62-3.39-10.04-6.66-7.69-5.36-15.13-11.06-22.27-17.08h-195.09c-9.75,0-17.64-7.9-17.64-17.63s7.9-17.64,17.64-17.64h159.66c-9.44-11.09-18.11-22.87-25.87-35.27h-133.79c-9.75,0-17.64-7.88-17.64-17.63s7.9-17.63,17.64-17.63h114.84c-10.4-22.86-17.99-47.26-22.32-72.75h-92.52c-9.75,0-17.64-7.88-17.64-17.63s7.9-17.63,17.64-17.63h88.62c-.27-5.12-.4-10.26-.4-15.43,0-6.66.22-13.29.66-19.84h-88.88c-9.75,0-17.64-7.9-17.64-17.64s7.9-17.63,17.64-17.63h93.31c4.59-24.71,12.25-48.36,22.54-70.54h-115.85c-9.75,0-17.64-7.88-17.64-17.63s7.9-17.63,17.64-17.63h135.18c7.93-12.41,16.76-24.21,26.35-35.27h-161.53c-9.75,0-17.64-7.9-17.64-17.63s7.9-17.64,17.64-17.64h197.72c29.81-24.53,64.44-43.46,102.21-55.11V88.17h-123.5c0,9.75-7.9,17.63-17.64,17.63h-247c-9.76,0-17.64-7.88-17.64-17.63h-123.5ZM299.93,138.86h247.01c9.75,0,17.64,7.9,17.64,17.64s-7.9,17.63-17.64,17.63h-247.01c-9.75,0-17.64-7.88-17.64-17.63s7.9-17.64,17.64-17.64ZM299.93,211.61h247.01c9.75,0,17.64,7.88,17.64,17.63s-7.9,17.63-17.64,17.63h-247.01c-9.75,0-17.64-7.88-17.64-17.63s7.9-17.63,17.64-17.63ZM299.93,317.41h247.01c9.75,0,17.64,7.9,17.64,17.63s-7.9,17.64-17.64,17.64h-247.01c-9.75,0-17.64-7.9-17.64-17.64s7.9-17.63,17.64-17.63ZM299.93,385.74h247.01c9.75,0,17.64,7.88,17.64,17.63s-7.9,17.64-17.64,17.64h-247.01c-9.75,0-17.64-7.9-17.64-17.64s7.9-17.63,17.64-17.63ZM245.57,866.11l-74.84,81.42c-3.35,3.64-8.07,5.71-13.01,5.71-.11,0-.23,0-.33-.03-5.05-.09-9.83-2.36-13.1-6.2l-37.43-44.02c-6.31-7.42-5.41-18.56,2-24.86,7.44-6.3,18.57-5.4,24.87,2.02l24.5,28.83,61.33-66.75c6.59-7.16,17.76-7.64,24.95-1.06,7.16,6.59,7.64,17.74,1.05,24.94ZM125.71,722.99c0-29.21,23.71-52.9,52.93-52.9s52.94,23.69,52.94,52.9-23.71,52.9-52.94,52.9-52.93-23.69-52.93-52.9ZM245.57,511.23l-74.84,81.42c-3.35,3.65-8.07,5.71-13.01,5.71-.11,0-.23,0-.33-.03-5.05-.09-9.83-2.36-13.1-6.19l-37.43-44.02c-6.31-7.42-5.41-18.56,2-24.86,7.44-6.31,18.57-5.41,24.87,2l24.5,28.83,61.33-66.74c6.59-7.17,17.76-7.65,24.95-1.06,7.16,6.59,7.64,17.74,1.05,24.93ZM125.71,370.31c0-29.2,23.71-52.9,52.93-52.9s52.94,23.7,52.94,52.9-23.71,52.9-52.94,52.9-52.93-23.69-52.93-52.9ZM219.57,134.68c6.59-7.17,17.76-7.65,24.95-1.06,7.16,6.59,7.64,17.74,1.05,24.93l-74.84,81.43c-3.35,3.64-8.07,5.7-13.01,5.7-.11,0-.23,0-.33-.03-5.05-.08-9.83-2.35-13.1-6.19l-37.43-44.02c-6.31-7.42-5.41-18.56,2-24.86,7.44-6.3,18.57-5.4,24.87,2l24.5,28.83,61.33-66.74Z" />
  <path class="cls-1"
    d="M764.88,676.3c0-42.32-34.45-76.75-76.79-76.75s-76.79,34.43-76.79,76.75,34.44,76.78,76.79,76.78,76.79-34.43,76.79-76.78Z" />
</svg>